{"glyphs":{"0":{"ha":836,"x_min":0,"x_max":0,"o":"m 42 488 b 418 993 42 806 178 993 b 794 488 658 993 794 806 b 418 -21 794 169 658 -21 b 42 488 178 -21 42 169 z m 271 486 b 418 167 271 281 317 167 b 565 486 519 167 565 281 b 418 806 565 692 519 806 b 271 486 317 806 271 692 z "},"1":{"ha":518,"x_min":0,"x_max":0,"o":"m 226 0 b 226 718 226 0 226 718 b 131 668 226 718 131 668 b 42 825 131 668 42 825 b 325 972 42 825 325 972 b 449 972 325 972 449 972 b 449 0 449 972 449 0 b 226 0 449 0 226 0 z "},"2":{"ha":740,"x_min":0,"x_max":0,"o":"m 456 694 b 340 806 456 761 418 806 b 179 721 269 806 236 779 b 42 843 179 721 42 843 b 339 993 136 956 231 993 b 685 694 567 993 685 869 b 347 194 685 467 500 300 b 699 194 347 194 699 194 b 699 0 699 194 699 0 b 69 0 699 0 69 0 b 69 194 69 0 69 194 b 456 694 271 363 456 544 z "},"3":{"ha":810,"x_min":0,"x_max":0,"o":"m 489 722 b 374 806 489 772 451 806 b 213 721 303 806 269 779 b 75 843 213 721 75 843 b 372 993 169 956 264 993 b 718 726 600 993 718 882 b 628 526 718 639 681 574 b 768 274 708 475 768 394 b 375 -21 768 101 635 -21 b 42 129 251 -21 143 17 b 179 251 42 129 179 251 b 386 167 247 193 292 167 b 539 274 490 167 539 208 b 350 419 539 418 421 419 b 246 419 350 419 246 419 b 246 600 246 419 246 600 b 332 600 246 600 332 600 b 489 722 390 600 489 610 z "},"4":{"ha":839,"x_min":0,"x_max":0,"o":"m 450 0 b 450 231 450 0 450 231 b 28 231 450 231 28 231 b 28 411 28 231 28 411 b 515 972 28 411 515 972 b 672 972 515 972 672 972 b 672 411 672 972 672 411 b 811 411 672 411 811 411 b 811 231 811 411 811 231 b 672 231 811 231 672 231 b 672 0 672 231 672 0 b 450 0 672 0 450 0 z m 286 411 b 450 411 286 411 450 411 b 450 600 450 411 450 600 b 286 411 450 600 286 411 z "},"5":{"ha":810,"x_min":0,"x_max":0,"o":"m 539 313 b 353 443 539 414 425 443 b 96 443 353 443 96 443 b 153 972 96 443 153 972 b 699 972 153 972 699 972 b 699 778 699 972 699 778 b 354 778 699 778 354 778 b 338 624 354 778 338 624 b 389 624 338 624 389 624 b 768 303 618 624 768 546 b 375 -21 768 106 635 -21 b 42 129 251 -21 143 17 b 179 251 42 129 179 251 b 386 167 247 193 292 167 b 539 313 490 167 539 221 z "},"6":{"ha":836,"x_min":0,"x_max":0,"o":"m 418 -21 b 42 488 178 -21 42 169 b 457 993 42 815 193 993 b 764 843 568 993 669 956 b 626 721 764 843 626 721 b 451 804 569 779 533 804 b 276 589 351 804 293 735 b 447 622 324 610 381 622 b 794 318 644 622 794 507 b 418 -21 794 72 632 -21 z m 276 378 b 428 167 292 240 340 167 b 565 299 508 167 565 224 b 424 435 565 372 513 435 b 276 378 363 435 317 411 z "},"7":{"ha":678,"x_min":0,"x_max":0,"o":"m 103 0 b 396 792 103 0 396 792 b 42 792 396 792 42 792 b 42 972 42 792 42 972 b 636 972 42 972 636 972 b 636 792 636 972 636 792 b 343 0 636 792 343 0 b 103 0 343 0 103 0 z "},"8":{"ha":858,"x_min":0,"x_max":0,"o":"m 419 -21 b 42 274 175 -21 42 94 b 176 522 42 392 99 471 b 81 726 121 569 81 636 b 429 993 81 889 199 993 b 778 726 658 993 778 889 b 682 522 778 636 738 569 b 817 274 760 471 817 392 b 419 -21 817 94 682 -21 z m 428 804 b 310 704 349 804 310 761 b 431 604 310 626 382 604 b 549 704 478 604 549 619 b 428 804 549 761 510 804 z m 271 290 b 429 168 271 215 321 168 b 588 290 538 168 588 215 b 431 417 588 400 492 417 b 271 290 369 417 271 400 z "},"9":{"ha":836,"x_min":0,"x_max":0,"o":"m 418 993 b 794 485 658 993 794 803 b 379 -21 794 157 643 -21 b 72 129 268 -21 167 17 b 210 251 72 129 210 251 b 385 168 267 193 303 168 b 560 383 485 168 543 238 b 389 350 513 363 456 350 b 42 654 192 350 42 465 b 418 993 42 900 204 993 z m 560 594 b 408 806 544 732 496 806 b 271 674 328 806 271 749 b 413 538 271 600 324 538 b 560 594 474 538 519 561 z "},"\u0000":{"ha":635,"x_min":0,"x_max":0,"o":"m 28 938 b 28 0 28 938 28 0 b 607 0 28 0 607 0 b 607 938 607 0 607 938 b 28 938 607 938 28 938 z m 94 67 b 94 871 94 67 94 871 b 539 871 94 871 539 871 b 539 67 539 871 539 67 b 94 67 539 67 94 67 z "}," ":{"ha":361,"x_min":0,"x_max":0,"o":""},"!":{"ha":306,"x_min":0,"x_max":0,"o":"m 83 335 b 42 972 83 335 42 972 b 264 972 42 972 264 972 b 222 335 264 972 222 335 b 83 335 222 335 83 335 z m 42 90 b 153 201 42 157 86 201 b 264 90 219 201 264 157 b 153 -21 264 24 219 -21 b 42 90 86 -21 42 24 z "},"\"":{"ha":428,"x_min":0,"x_max":0,"o":"m 69 694 b 42 972 69 694 42 972 b 181 972 42 972 181 972 b 153 694 181 972 153 694 b 69 694 153 694 69 694 z m 275 694 b 247 972 275 694 247 972 b 386 972 247 972 386 972 b 358 694 386 972 358 694 b 275 694 358 694 275 694 z "},"#":{"ha":938,"x_min":0,"x_max":0,"o":"m 92 0 b 185 261 92 0 185 261 b 42 261 185 261 42 261 b 42 372 42 261 42 372 b 225 372 42 372 225 372 b 300 583 225 372 300 583 b 42 583 300 583 42 583 b 42 694 42 583 42 694 b 340 694 42 694 340 694 b 439 972 340 694 439 972 b 558 972 439 972 558 972 b 460 694 558 972 460 694 b 621 694 460 694 621 694 b 719 972 621 694 719 972 b 839 972 719 972 839 972 b 740 694 839 972 740 694 b 896 694 740 694 896 694 b 896 583 896 694 896 583 b 700 583 896 583 700 583 b 625 372 700 583 625 372 b 896 372 625 372 896 372 b 896 261 896 372 896 261 b 585 261 896 261 585 261 b 492 0 585 261 492 0 b 372 0 492 0 372 0 b 465 261 372 0 465 261 b 304 261 465 261 304 261 b 211 0 304 261 211 0 b 92 0 211 0 92 0 z m 344 372 b 506 372 344 372 506 372 b 581 583 506 372 581 583 b 419 583 581 583 419 583 b 344 372 419 583 344 372 z "},"$":{"ha":807,"x_min":0,"x_max":0,"o":"m 79 694 b 335 988 79 833 149 958 b 335 1160 335 988 335 1160 b 501 1160 335 1160 501 1160 b 501 986 501 1160 501 986 b 765 843 594 972 689 929 b 628 721 765 843 628 721 b 419 806 560 779 492 806 b 282 703 326 806 282 781 b 442 574 282 625 367 596 b 765 272 664 507 765 458 b 501 -17 765 124 672 7 b 501 -187 501 -17 501 -187 b 335 -187 501 -187 335 -187 b 335 -15 335 -187 335 -15 b 42 129 211 -3 122 39 b 179 251 42 129 179 251 b 440 167 250 193 333 167 b 563 263 504 167 563 206 b 376 357 563 324 507 322 b 79 694 181 408 79 513 z "},"%":{"ha":1068,"x_min":0,"x_max":0,"o":"m 42 740 b 231 993 42 899 110 993 b 418 740 350 993 418 899 b 231 486 418 581 350 486 b 42 740 110 486 42 581 z m 189 0 b 739 972 189 0 739 972 b 868 972 739 972 868 972 b 318 0 868 972 318 0 b 189 0 318 0 189 0 z m 157 739 b 231 579 157 636 179 579 b 304 739 281 579 304 636 b 231 899 304 842 281 899 b 157 739 179 899 157 842 z m 650 244 b 839 497 650 403 718 497 b 1026 244 958 497 1026 403 b 839 -11 1026 85 958 -11 b 650 244 718 -11 650 85 z m 765 243 b 839 83 765 140 788 83 b 913 243 889 83 913 140 b 839 403 913 346 889 403 b 765 243 788 403 765 346 z "},"&":{"ha":1103,"x_min":0,"x_max":0,"o":"m 817 726 b 603 440 817 571 728 479 b 746 303 603 440 746 303 b 771 438 763 340 771 386 b 999 438 771 438 999 438 b 903 153 999 321 961 225 b 1061 0 903 153 1061 0 b 760 0 1061 0 760 0 b 733 25 760 0 733 25 b 513 -21 665 -6 589 -21 b 42 274 181 -21 42 94 b 215 522 42 392 115 471 b 119 726 160 569 119 636 b 468 993 119 889 238 993 b 817 726 697 993 817 889 z m 467 804 b 349 704 388 804 349 761 b 469 604 349 626 421 604 b 588 704 517 604 588 619 b 467 804 588 761 549 804 z m 578 174 b 343 400 578 174 343 400 b 271 290 303 383 271 351 b 510 168 271 215 325 168 b 578 174 535 168 557 169 z "},"'":{"ha":222,"x_min":0,"x_max":0,"o":"m 69 694 b 42 972 69 694 42 972 b 181 972 42 972 181 972 b 153 694 181 972 153 694 b 69 694 153 694 69 694 z "},"(":{"ha":476,"x_min":0,"x_max":0,"o":"m 208 363 b 463 -194 208 -6 325 -194 b 463 -306 463 -194 463 -306 b 42 361 201 -306 42 4 b 463 1028 42 718 201 1028 b 463 917 463 1028 463 917 b 208 363 325 917 208 728 z "},")":{"ha":476,"x_min":0,"x_max":0,"o":"m 268 363 b 14 917 268 728 151 917 b 14 1028 14 917 14 1028 b 435 361 275 1028 435 718 b 14 -306 435 4 275 -306 b 14 -194 14 -306 14 -194 b 268 363 151 -194 268 -6 z "},"*":{"ha":550,"x_min":0,"x_max":0,"o":"m 42 800 b 94 897 42 800 94 897 b 219 829 94 897 219 829 b 219 972 219 829 219 972 b 331 972 219 972 331 972 b 331 829 331 972 331 829 b 456 897 331 829 456 897 b 508 800 456 897 508 800 b 390 736 508 800 390 736 b 508 672 390 736 508 672 b 456 575 508 672 456 575 b 331 643 456 575 331 643 b 331 500 331 643 331 500 b 219 500 331 500 219 500 b 219 643 219 500 219 643 b 94 575 219 643 94 575 b 42 672 94 575 42 672 b 160 736 42 672 160 736 b 42 800 160 736 42 800 z "},"+":{"ha":556,"x_min":0,"x_max":0,"o":"m 42 389 b 42 500 42 389 42 500 b 222 500 42 500 222 500 b 222 681 222 500 222 681 b 333 681 222 681 333 681 b 333 500 333 681 333 500 b 514 500 333 500 514 500 b 514 389 514 500 514 389 b 333 389 514 389 333 389 b 333 208 333 389 333 208 b 222 208 333 208 222 208 b 222 389 222 208 222 389 b 42 389 222 389 42 389 z "},",":{"ha":315,"x_min":0,"x_max":0,"o":"m 51 90 b 163 201 51 157 96 201 b 274 90 229 201 274 157 b 75 -210 274 -26 225 -125 b 42 -157 75 -210 42 -157 b 143 -19 94 -115 129 -72 b 51 90 88 -11 51 31 z "},"-":{"ha":500,"x_min":0,"x_max":0,"o":"m 42 258 b 42 369 42 258 42 369 b 458 369 42 369 458 369 b 458 258 458 369 458 258 b 42 258 458 258 42 258 z "},".":{"ha":306,"x_min":0,"x_max":0,"o":"m 42 90 b 153 201 42 157 86 201 b 264 90 219 201 264 157 b 153 -21 264 24 219 -21 b 42 90 86 -21 42 24 z "},"/":{"ha":721,"x_min":0,"x_max":0,"o":"m 42 0 b 494 972 42 0 494 972 b 679 972 494 972 679 972 b 226 0 679 972 226 0 b 42 0 226 0 42 0 z "},":":{"ha":306,"x_min":0,"x_max":0,"o":"m 42 556 b 153 667 42 622 86 667 b 264 556 219 667 264 622 b 153 444 264 489 219 444 b 42 556 86 444 42 489 z m 42 90 b 153 201 42 157 86 201 b 264 90 219 201 264 157 b 153 -21 264 24 219 -21 b 42 90 86 -21 42 24 z "},";":{"ha":315,"x_min":0,"x_max":0,"o":"m 47 556 b 158 667 47 622 92 667 b 269 556 225 667 269 622 b 158 444 269 489 225 444 b 47 556 92 444 47 489 z m 51 90 b 163 201 51 157 96 201 b 274 90 229 201 274 157 b 75 -210 274 -26 225 -125 b 42 -157 75 -210 42 -157 b 143 -19 94 -115 129 -72 b 51 90 88 -11 51 31 z "},"<":{"ha":556,"x_min":0,"x_max":0,"o":"m 42 389 b 42 511 42 389 42 511 b 514 725 42 511 514 725 b 514 603 514 725 514 603 b 176 450 514 603 176 450 b 514 297 176 450 514 297 b 514 175 514 297 514 175 b 42 389 514 175 42 389 z "},"=":{"ha":542,"x_min":0,"x_max":0,"o":"m 42 381 b 42 492 42 381 42 492 b 500 492 42 492 500 492 b 500 381 500 492 500 381 b 42 381 500 381 42 381 z m 42 153 b 42 264 42 153 42 264 b 500 264 42 264 500 264 b 500 153 500 264 500 153 b 42 153 500 153 42 153 z "},">":{"ha":556,"x_min":0,"x_max":0,"o":"m 514 389 b 42 175 514 389 42 175 b 42 297 42 175 42 297 b 379 450 42 297 379 450 b 42 603 379 450 42 603 b 42 725 42 603 42 725 b 514 511 42 725 514 511 b 514 389 514 511 514 389 z "},"?":{"ha":728,"x_min":0,"x_max":0,"o":"m 457 721 b 342 806 457 771 419 806 b 181 721 271 806 238 779 b 42 843 181 721 42 843 b 372 993 138 956 232 993 b 686 715 568 993 686 869 b 386 335 686 471 386 503 b 247 335 386 335 247 335 b 457 721 247 560 457 593 z m 213 90 b 324 201 213 157 257 201 b 435 90 390 201 435 157 b 324 -21 435 24 390 -21 b 213 90 257 -21 213 24 z "},"@":{"ha":1097,"x_min":0,"x_max":0,"o":"m 324 401 b 525 615 324 531 408 615 b 761 615 525 615 761 615 b 761 324 761 615 761 324 b 815 276 761 288 781 276 b 917 500 893 276 917 360 b 549 794 917 690 769 794 b 181 413 325 794 181 657 b 592 32 181 161 343 32 b 769 74 658 32 717 46 b 824 -29 769 74 824 -29 b 592 -79 754 -62 676 -79 b 42 414 264 -79 42 79 b 549 906 42 721 247 906 b 1056 490 850 906 1056 753 b 811 164 1056 246 911 164 b 633 249 718 164 651 185 b 522 186 608 207 571 186 b 324 401 408 186 324 272 z m 461 400 b 546 299 461 339 496 299 b 628 401 596 299 628 339 b 628 504 628 401 628 504 b 546 504 628 504 546 504 b 461 400 496 504 461 461 z "},"A":{"ha":826,"x_min":0,"x_max":0,"o":"m 42 221 b 378 442 42 368 183 442 b 529 442 378 442 529 442 b 396 528 503 499 451 528 b 224 443 322 528 288 501 b 86 565 224 443 86 565 b 418 715 186 678 281 715 b 771 379 613 715 771 618 b 771 0 771 379 771 0 b 549 0 771 0 549 0 b 549 69 549 0 549 69 b 351 -21 510 13 444 -21 b 42 221 182 -21 42 69 z m 271 242 b 386 167 271 185 333 167 b 549 260 488 167 549 236 b 549 303 549 260 549 303 b 411 303 549 303 411 303 b 271 242 328 303 271 286 z "},"B":{"ha":840,"x_min":0,"x_max":0,"o":"m 435 0 b 69 0 435 0 69 0 b 69 1042 69 0 69 1042 b 292 1042 69 1042 292 1042 b 292 694 292 1042 292 694 b 463 694 292 694 463 694 b 799 347 657 694 799 557 b 435 0 799 140 626 0 z m 569 346 b 429 514 569 446 513 514 b 292 514 429 514 292 514 b 292 181 292 514 292 181 b 429 181 292 181 429 181 b 569 346 513 181 569 247 z "},"C":{"ha":779,"x_min":0,"x_max":0,"o":"m 426 -21 b 42 349 165 -21 42 128 b 417 715 42 578 178 715 b 736 565 533 715 636 678 b 599 443 736 565 599 443 b 422 528 535 501 493 528 b 271 349 314 528 271 465 b 432 167 271 240 318 167 b 614 251 506 167 550 193 b 751 129 614 251 751 129 b 426 -21 651 17 543 -21 z "},"D":{"ha":840,"x_min":0,"x_max":0,"o":"m 549 0 b 549 69 549 0 549 69 b 374 -21 508 10 450 -21 b 42 338 182 -21 42 124 b 378 694 42 553 183 694 b 549 694 378 694 549 694 b 549 1042 549 694 549 1042 b 771 1042 549 1042 771 1042 b 771 0 771 1042 771 0 b 549 0 771 0 549 0 z m 271 339 b 411 167 271 236 328 167 b 549 340 496 167 549 236 b 549 514 549 340 549 514 b 411 514 549 514 411 514 b 271 339 328 514 271 443 z "},"E":{"ha":794,"x_min":0,"x_max":0,"o":"m 753 290 b 276 290 753 290 276 290 b 424 167 290 215 336 167 b 600 251 494 167 536 193 b 738 129 600 251 738 129 b 418 -21 638 17 532 -21 b 42 349 163 -21 42 128 b 392 715 42 569 168 715 b 753 290 657 715 753 558 z m 279 429 b 536 429 279 429 536 429 b 407 528 517 493 476 528 b 279 429 335 528 296 490 z "},"F":{"ha":528,"x_min":0,"x_max":0,"o":"m 486 1031 b 486 850 486 1031 486 850 b 404 850 486 850 404 850 b 278 694 314 850 278 761 b 478 694 278 694 478 694 b 478 514 478 694 478 514 b 278 514 478 514 278 514 b 278 0 278 514 278 0 b 56 0 278 0 56 0 b 56 694 56 0 56 694 b 394 1031 56 919 172 1031 b 486 1031 394 1031 486 1031 z "},"G":{"ha":843,"x_min":0,"x_max":0,"o":"m 44 358 b 381 694 44 561 186 694 b 774 694 381 694 774 694 b 774 57 774 694 774 57 b 374 -312 774 -164 646 -312 b 42 -162 254 -312 142 -275 b 179 -40 42 -162 179 -40 b 375 -125 244 -99 293 -125 b 551 60 500 -125 551 -49 b 551 106 551 60 551 106 b 376 21 511 49 453 21 b 44 358 185 21 44 157 z m 274 360 b 414 208 274 269 331 208 b 551 361 499 208 551 269 b 551 514 551 361 551 514 b 414 514 551 514 414 514 b 274 360 331 514 274 451 z "},"H":{"ha":785,"x_min":0,"x_max":0,"o":"m 393 694 b 729 369 658 694 729 528 b 729 0 729 369 729 0 b 507 0 729 0 507 0 b 507 369 507 0 507 369 b 360 514 507 456 450 514 b 264 514 360 514 264 514 b 264 0 264 514 264 0 b 42 0 264 0 42 0 b 42 1042 42 0 42 1042 b 264 1042 42 1042 264 1042 b 264 694 264 1042 264 694 b 393 694 264 694 393 694 z "},"I":{"ha":361,"x_min":0,"x_max":0,"o":"m 69 194 b 69 694 69 194 69 694 b 292 694 69 694 292 694 b 292 0 292 694 292 0 b 264 0 292 0 264 0 b 69 194 147 0 69 78 z "},"J":{"ha":399,"x_min":0,"x_max":0,"o":"m 121 778 b 121 1000 121 778 121 1000 b 343 1000 121 1000 343 1000 b 343 778 343 1000 343 778 b 121 778 343 778 121 778 z m -42 -306 b -42 -125 -42 -306 -42 -125 b 22 -125 -42 -125 22 -125 b 121 31 103 -125 121 -36 b 121 694 121 31 121 694 b 343 694 121 694 343 694 b 343 31 343 694 343 31 b 32 -306 343 -194 226 -306 b -42 -306 32 -306 -42 -306 z "},"K":{"ha":736,"x_min":0,"x_max":0,"o":"m 264 0 b 42 0 264 0 42 0 b 42 1042 42 0 42 1042 b 264 1042 42 1042 264 1042 b 264 457 264 1042 264 457 b 365 457 264 457 365 457 b 486 694 365 457 486 694 b 736 694 486 694 736 694 b 560 347 736 694 560 347 b 736 0 560 347 736 0 b 486 0 736 0 486 0 b 346 276 486 0 346 276 b 264 276 346 276 264 276 b 264 0 264 276 264 0 z "},"L":{"ha":361,"x_min":0,"x_max":0,"o":"m 69 194 b 69 1042 69 194 69 1042 b 292 1042 69 1042 292 1042 b 292 0 292 1042 292 0 b 264 0 292 0 264 0 b 69 194 147 0 69 78 z "},"M":{"ha":1158,"x_min":0,"x_max":0,"o":"m 292 0 b 69 0 292 0 69 0 b 69 694 69 0 69 694 b 794 694 69 694 794 694 b 1103 369 1060 694 1103 528 b 1103 0 1103 369 1103 0 b 881 0 1103 0 881 0 b 881 369 881 0 881 369 b 761 514 881 456 851 514 b 697 514 761 514 697 514 b 697 0 697 514 697 0 b 475 0 697 0 475 0 b 475 369 475 0 475 369 b 356 514 475 456 446 514 b 292 514 356 514 292 514 b 292 0 292 514 292 0 z "},"N":{"ha":785,"x_min":0,"x_max":0,"o":"m 264 0 b 42 0 264 0 42 0 b 42 694 42 0 42 694 b 393 694 42 694 393 694 b 729 369 658 694 729 528 b 729 0 729 369 729 0 b 507 0 729 0 507 0 b 507 369 507 0 507 369 b 360 514 507 456 450 514 b 264 514 360 514 264 514 b 264 0 264 514 264 0 z "},"O":{"ha":808,"x_min":0,"x_max":0,"o":"m 42 349 b 404 715 42 569 186 715 b 767 349 622 715 767 569 b 404 -21 767 128 622 -21 b 42 349 186 -21 42 128 z m 271 347 b 404 167 271 239 325 167 b 538 347 483 167 538 239 b 404 528 538 456 483 528 b 271 347 325 528 271 456 z "},"P":{"ha":840,"x_min":0,"x_max":0,"o":"m 435 694 b 799 347 626 694 799 554 b 463 0 799 138 657 0 b 292 0 463 0 292 0 b 292 -306 292 0 292 -306 b 69 -306 292 -306 69 -306 b 69 694 69 -306 69 694 b 435 694 69 694 435 694 z m 569 349 b 429 514 569 447 513 514 b 292 514 429 514 292 514 b 292 181 292 514 292 181 b 429 181 292 181 429 181 b 569 349 513 181 569 249 z "},"Q":{"ha":840,"x_min":0,"x_max":0,"o":"m 406 694 b 771 694 406 694 771 694 b 771 -306 771 694 771 -306 b 549 -306 771 -306 549 -306 b 549 0 549 -306 549 0 b 378 0 549 0 378 0 b 42 347 183 0 42 138 b 406 694 42 554 214 694 z m 271 349 b 411 181 271 249 328 181 b 549 181 411 181 549 181 b 549 514 549 181 549 514 b 411 514 549 514 411 514 b 271 349 328 514 271 447 z "},"R":{"ha":557,"x_min":0,"x_max":0,"o":"m 392 514 b 278 369 314 514 278 456 b 278 0 278 369 278 0 b 56 0 278 0 56 0 b 56 369 56 0 56 369 b 368 694 56 528 126 694 b 529 694 368 694 529 694 b 529 514 529 694 529 514 b 392 514 529 514 392 514 z "},"S":{"ha":732,"x_min":0,"x_max":0,"o":"m 79 474 b 378 715 79 610 158 715 b 690 565 482 715 596 678 b 553 443 690 565 553 443 b 358 528 492 501 440 528 b 282 499 315 528 282 521 b 411 454 282 476 350 467 b 674 217 578 418 674 369 b 413 -21 674 82 572 -21 b 42 129 232 -21 135 17 b 179 251 42 129 179 251 b 379 167 239 193 301 167 b 471 199 426 167 471 179 b 340 235 471 219 426 221 b 79 474 154 264 79 354 z "},"T":{"ha":528,"x_min":0,"x_max":0,"o":"m 486 0 b 394 0 486 0 394 0 b 56 336 172 0 56 111 b 56 903 56 336 56 903 b 278 903 56 903 278 903 b 278 694 278 903 278 694 b 478 694 278 694 478 694 b 478 514 478 694 478 514 b 278 514 478 514 278 514 b 278 336 278 514 278 336 b 404 181 278 269 314 181 b 486 181 404 181 486 181 b 486 0 486 181 486 0 z "},"U":{"ha":831,"x_min":0,"x_max":0,"o":"m 415 167 b 553 314 494 167 553 217 b 553 694 553 314 553 694 b 775 694 553 694 775 694 b 775 325 775 694 775 325 b 415 -21 775 161 682 -21 b 56 325 150 -21 56 161 b 56 694 56 325 56 694 b 278 694 56 694 278 694 b 278 314 278 694 278 314 b 415 167 278 217 336 167 z "},"V":{"ha":722,"x_min":0,"x_max":0,"o":"m 249 0 b -28 694 249 0 -28 694 b 197 694 -28 694 197 694 b 361 283 197 694 361 283 b 525 694 361 283 525 694 b 750 694 525 694 750 694 b 474 0 750 694 474 0 b 249 0 474 0 249 0 z "},"W":{"ha":1053,"x_min":0,"x_max":0,"o":"m 193 0 b -28 694 193 0 -28 694 b 197 694 -28 694 197 694 b 306 354 197 694 306 354 b 414 694 306 354 414 694 b 639 694 414 694 639 694 b 747 354 639 694 747 354 b 856 694 747 354 856 694 b 1081 694 856 694 1081 694 b 860 0 1081 694 860 0 b 635 0 860 0 635 0 b 526 340 635 0 526 340 b 418 0 526 340 418 0 b 193 0 418 0 193 0 z "},"X":{"ha":778,"x_min":0,"x_max":0,"o":"m 503 0 b 389 157 503 0 389 157 b 275 0 389 157 275 0 b 0 0 275 0 0 0 b 251 347 0 0 251 347 b 0 694 251 347 0 694 b 275 694 0 694 275 694 b 389 538 275 694 389 538 b 503 694 389 538 503 694 b 778 694 503 694 778 694 b 526 347 778 694 526 347 b 778 0 526 347 778 0 b 503 0 778 0 503 0 z "},"Y":{"ha":813,"x_min":0,"x_max":0,"o":"m 535 694 b 757 694 535 694 757 694 b 757 57 757 694 757 57 b 388 -312 757 -164 660 -312 b 56 -162 268 -312 156 -275 b 193 -40 56 -162 193 -40 b 389 -125 258 -99 307 -125 b 533 14 496 -125 526 -69 b 406 14 533 14 406 14 b 69 333 140 14 69 176 b 69 694 69 333 69 694 b 292 694 69 694 292 694 b 292 335 292 694 292 335 b 439 194 292 251 349 194 b 535 194 439 194 535 194 b 535 694 535 194 535 694 z "},"Z":{"ha":646,"x_min":0,"x_max":0,"o":"m 42 514 b 42 694 42 514 42 694 b 604 694 42 694 604 694 b 604 514 604 694 604 514 b 311 181 604 514 311 181 b 604 181 311 181 604 181 b 604 0 604 181 604 0 b 42 0 604 0 42 0 b 42 181 42 0 42 181 b 335 514 42 181 335 514 b 42 514 335 514 42 514 z "},"[":{"ha":417,"x_min":0,"x_max":0,"o":"m 42 -306 b 42 1042 42 -306 42 1042 b 375 1042 42 1042 375 1042 b 375 931 375 1042 375 931 b 208 931 375 931 208 931 b 208 -194 208 931 208 -194 b 375 -194 208 -194 375 -194 b 375 -306 375 -194 375 -306 b 42 -306 375 -306 42 -306 z "},"\\":{"ha":721,"x_min":0,"x_max":0,"o":"m 679 0 b 494 0 679 0 494 0 b 42 972 494 0 42 972 b 226 972 42 972 226 972 b 679 0 226 972 679 0 z "},"]":{"ha":417,"x_min":0,"x_max":0,"o":"m 375 1042 b 375 -306 375 1042 375 -306 b 42 -306 375 -306 42 -306 b 42 -194 42 -306 42 -194 b 208 -194 42 -194 208 -194 b 208 931 208 -194 208 931 b 42 931 208 931 42 931 b 42 1042 42 931 42 1042 b 375 1042 42 1042 375 1042 z "},"^":{"ha":633,"x_min":0,"x_max":0,"o":"m 256 972 b 378 972 256 972 378 972 b 592 500 378 972 592 500 b 469 500 592 500 469 500 b 317 838 469 500 317 838 b 164 500 317 838 164 500 b 42 500 164 500 42 500 b 256 972 42 500 256 972 z "},"_":{"ha":681,"x_min":0,"x_max":0,"o":"m -42 -207 b -42 -96 -42 -207 -42 -96 b 722 -96 -42 -96 722 -96 b 722 -207 722 -96 722 -207 b -42 -207 722 -207 -42 -207 z "},"`":{"ha":339,"x_min":0,"x_max":0,"o":"m 238 701 b 42 858 238 701 42 858 b 140 957 42 858 140 957 b 297 761 140 957 297 761 b 238 701 297 761 238 701 z "},"a":{"ha":840,"x_min":0,"x_max":0,"o":"m 549 0 b 549 69 549 0 549 69 b 374 -21 508 10 450 -21 b 42 338 182 -21 42 124 b 378 694 42 553 183 694 b 771 694 378 694 771 694 b 771 0 771 694 771 0 b 549 0 771 0 549 0 z m 271 339 b 411 167 271 236 328 167 b 549 340 496 167 549 236 b 549 514 549 340 549 514 b 411 514 549 514 411 514 b 271 339 328 514 271 443 z "},"b":{"ha":840,"x_min":0,"x_max":0,"o":"m 435 0 b 69 0 435 0 69 0 b 69 1042 69 0 69 1042 b 292 1042 69 1042 292 1042 b 292 694 292 1042 292 694 b 463 694 292 694 463 694 b 799 347 657 694 799 557 b 435 0 799 140 626 0 z m 569 346 b 429 514 569 446 513 514 b 292 514 429 514 292 514 b 292 181 292 514 292 181 b 429 181 292 181 429 181 b 569 346 513 181 569 247 z "},"c":{"ha":779,"x_min":0,"x_max":0,"o":"m 426 -21 b 42 349 165 -21 42 128 b 417 715 42 578 178 715 b 736 565 533 715 636 678 b 599 443 736 565 599 443 b 422 528 535 501 493 528 b 271 349 314 528 271 465 b 432 167 271 240 318 167 b 614 251 506 167 550 193 b 751 129 614 251 751 129 b 426 -21 651 17 543 -21 z "},"d":{"ha":840,"x_min":0,"x_max":0,"o":"m 549 0 b 549 69 549 0 549 69 b 374 -21 508 10 450 -21 b 42 338 182 -21 42 124 b 378 694 42 553 183 694 b 549 694 378 694 549 694 b 549 1042 549 694 549 1042 b 771 1042 549 1042 771 1042 b 771 0 771 1042 771 0 b 549 0 771 0 549 0 z m 271 339 b 411 167 271 236 328 167 b 549 340 496 167 549 236 b 549 514 549 340 549 514 b 411 514 549 514 411 514 b 271 339 328 514 271 443 z "},"e":{"ha":794,"x_min":0,"x_max":0,"o":"m 753 290 b 276 290 753 290 276 290 b 424 167 290 215 336 167 b 600 251 494 167 536 193 b 738 129 600 251 738 129 b 418 -21 638 17 532 -21 b 42 349 163 -21 42 128 b 392 715 42 569 168 715 b 753 290 657 715 753 558 z m 279 429 b 536 429 279 429 536 429 b 407 528 517 493 476 528 b 279 429 335 528 296 490 z "},"f":{"ha":528,"x_min":0,"x_max":0,"o":"m 486 1031 b 486 850 486 1031 486 850 b 404 850 486 850 404 850 b 278 694 314 850 278 761 b 478 694 278 694 478 694 b 478 514 478 694 478 514 b 278 514 478 514 278 514 b 278 0 278 514 278 0 b 56 0 278 0 56 0 b 56 694 56 0 56 694 b 394 1031 56 919 172 1031 b 486 1031 394 1031 486 1031 z "},"g":{"ha":843,"x_min":0,"x_max":0,"o":"m 44 358 b 381 694 44 561 186 694 b 774 694 381 694 774 694 b 774 57 774 694 774 57 b 374 -312 774 -164 646 -312 b 42 -162 254 -312 142 -275 b 179 -40 42 -162 179 -40 b 375 -125 244 -99 293 -125 b 551 60 500 -125 551 -49 b 551 106 551 60 551 106 b 376 21 511 49 453 21 b 44 358 185 21 44 157 z m 274 360 b 414 208 274 269 331 208 b 551 361 499 208 551 269 b 551 514 551 361 551 514 b 414 514 551 514 414 514 b 274 360 331 514 274 451 z "},"h":{"ha":785,"x_min":0,"x_max":0,"o":"m 393 694 b 729 369 658 694 729 528 b 729 0 729 369 729 0 b 507 0 729 0 507 0 b 507 369 507 0 507 369 b 360 514 507 456 450 514 b 264 514 360 514 264 514 b 264 0 264 514 264 0 b 42 0 264 0 42 0 b 42 1042 42 0 42 1042 b 264 1042 42 1042 264 1042 b 264 694 264 1042 264 694 b 393 694 264 694 393 694 z "},"i":{"ha":361,"x_min":0,"x_max":0,"o":"m 69 778 b 69 1000 69 778 69 1000 b 292 1000 69 1000 292 1000 b 292 778 292 1000 292 778 b 69 778 292 778 69 778 z m 69 194 b 69 694 69 194 69 694 b 292 694 69 694 292 694 b 292 0 292 694 292 0 b 264 0 292 0 264 0 b 69 194 147 0 69 78 z "},"j":{"ha":399,"x_min":0,"x_max":0,"o":"m 121 778 b 121 1000 121 778 121 1000 b 343 1000 121 1000 343 1000 b 343 778 343 1000 343 778 b 121 778 343 778 121 778 z m -42 -306 b -42 -125 -42 -306 -42 -125 b 22 -125 -42 -125 22 -125 b 121 31 103 -125 121 -36 b 121 694 121 31 121 694 b 343 694 121 694 343 694 b 343 31 343 694 343 31 b 32 -306 343 -194 226 -306 b -42 -306 32 -306 -42 -306 z "},"k":{"ha":736,"x_min":0,"x_max":0,"o":"m 264 0 b 42 0 264 0 42 0 b 42 1042 42 0 42 1042 b 264 1042 42 1042 264 1042 b 264 457 264 1042 264 457 b 365 457 264 457 365 457 b 486 694 365 457 486 694 b 736 694 486 694 736 694 b 560 347 736 694 560 347 b 736 0 560 347 736 0 b 486 0 736 0 486 0 b 346 276 486 0 346 276 b 264 276 346 276 264 276 b 264 0 264 276 264 0 z "},"l":{"ha":361,"x_min":0,"x_max":0,"o":"m 69 194 b 69 1042 69 194 69 1042 b 292 1042 69 1042 292 1042 b 292 0 292 1042 292 0 b 264 0 292 0 264 0 b 69 194 147 0 69 78 z "},"m":{"ha":1158,"x_min":0,"x_max":0,"o":"m 292 0 b 69 0 292 0 69 0 b 69 694 69 0 69 694 b 794 694 69 694 794 694 b 1103 369 1060 694 1103 528 b 1103 0 1103 369 1103 0 b 881 0 1103 0 881 0 b 881 369 881 0 881 369 b 761 514 881 456 851 514 b 697 514 761 514 697 514 b 697 0 697 514 697 0 b 475 0 697 0 475 0 b 475 369 475 0 475 369 b 356 514 475 456 446 514 b 292 514 356 514 292 514 b 292 0 292 514 292 0 z "},"n":{"ha":785,"x_min":0,"x_max":0,"o":"m 264 0 b 42 0 264 0 42 0 b 42 694 42 0 42 694 b 393 694 42 694 393 694 b 729 369 658 694 729 528 b 729 0 729 369 729 0 b 507 0 729 0 507 0 b 507 369 507 0 507 369 b 360 514 507 456 450 514 b 264 514 360 514 264 514 b 264 0 264 514 264 0 z "},"o":{"ha":808,"x_min":0,"x_max":0,"o":"m 42 349 b 404 715 42 569 186 715 b 767 349 622 715 767 569 b 404 -21 767 128 622 -21 b 42 349 186 -21 42 128 z m 271 347 b 404 167 271 239 325 167 b 538 347 483 167 538 239 b 404 528 538 456 483 528 b 271 347 325 528 271 456 z "},"p":{"ha":840,"x_min":0,"x_max":0,"o":"m 435 694 b 799 347 626 694 799 554 b 463 0 799 138 657 0 b 292 0 463 0 292 0 b 292 -306 292 0 292 -306 b 69 -306 292 -306 69 -306 b 69 694 69 -306 69 694 b 435 694 69 694 435 694 z m 569 349 b 429 514 569 447 513 514 b 292 514 429 514 292 514 b 292 181 292 514 292 181 b 429 181 292 181 429 181 b 569 349 513 181 569 249 z "},"q":{"ha":840,"x_min":0,"x_max":0,"o":"m 406 694 b 771 694 406 694 771 694 b 771 -306 771 694 771 -306 b 549 -306 771 -306 549 -306 b 549 0 549 -306 549 0 b 378 0 549 0 378 0 b 42 347 183 0 42 138 b 406 694 42 554 214 694 z m 271 349 b 411 181 271 249 328 181 b 549 181 411 181 549 181 b 549 514 549 181 549 514 b 411 514 549 514 411 514 b 271 349 328 514 271 447 z "},"r":{"ha":557,"x_min":0,"x_max":0,"o":"m 392 514 b 278 369 314 514 278 456 b 278 0 278 369 278 0 b 56 0 278 0 56 0 b 56 369 56 0 56 369 b 368 694 56 528 126 694 b 529 694 368 694 529 694 b 529 514 529 694 529 514 b 392 514 529 514 392 514 z "},"s":{"ha":732,"x_min":0,"x_max":0,"o":"m 79 474 b 378 715 79 610 158 715 b 690 565 482 715 596 678 b 553 443 690 565 553 443 b 358 528 492 501 440 528 b 282 499 315 528 282 521 b 411 454 282 476 350 467 b 674 217 578 418 674 369 b 413 -21 674 82 572 -21 b 42 129 232 -21 135 17 b 179 251 42 129 179 251 b 379 167 239 193 301 167 b 471 199 426 167 471 179 b 340 235 471 219 426 221 b 79 474 154 264 79 354 z "},"t":{"ha":528,"x_min":0,"x_max":0,"o":"m 486 0 b 394 0 486 0 394 0 b 56 336 172 0 56 111 b 56 903 56 336 56 903 b 278 903 56 903 278 903 b 278 694 278 903 278 694 b 478 694 278 694 478 694 b 478 514 478 694 478 514 b 278 514 478 514 278 514 b 278 336 278 514 278 336 b 404 181 278 269 314 181 b 486 181 404 181 486 181 b 486 0 486 181 486 0 z "},"u":{"ha":813,"x_min":0,"x_max":0,"o":"m 521 694 b 743 694 521 694 743 694 b 743 0 743 694 743 0 b 392 0 743 0 392 0 b 56 325 126 0 56 167 b 56 694 56 325 56 694 b 278 694 56 694 278 694 b 278 325 278 694 278 325 b 425 181 278 239 335 181 b 521 181 425 181 521 181 b 521 694 521 181 521 694 z "},"v":{"ha":722,"x_min":0,"x_max":0,"o":"m 249 0 b -28 694 249 0 -28 694 b 197 694 -28 694 197 694 b 361 283 197 694 361 283 b 525 694 361 283 525 694 b 750 694 525 694 750 694 b 474 0 750 694 474 0 b 249 0 474 0 249 0 z "},"w":{"ha":1053,"x_min":0,"x_max":0,"o":"m 193 0 b -28 694 193 0 -28 694 b 197 694 -28 694 197 694 b 306 354 197 694 306 354 b 414 694 306 354 414 694 b 639 694 414 694 639 694 b 747 354 639 694 747 354 b 856 694 747 354 856 694 b 1081 694 856 694 1081 694 b 860 0 1081 694 860 0 b 635 0 860 0 635 0 b 526 340 635 0 526 340 b 418 0 526 340 418 0 b 193 0 418 0 193 0 z "},"x":{"ha":778,"x_min":0,"x_max":0,"o":"m 503 0 b 389 157 503 0 389 157 b 275 0 389 157 275 0 b 0 0 275 0 0 0 b 251 347 0 0 251 347 b 0 694 251 347 0 694 b 275 694 0 694 275 694 b 389 538 275 694 389 538 b 503 694 389 538 503 694 b 778 694 503 694 778 694 b 526 347 778 694 526 347 b 778 0 526 347 778 0 b 503 0 778 0 503 0 z "},"y":{"ha":813,"x_min":0,"x_max":0,"o":"m 535 694 b 757 694 535 694 757 694 b 757 57 757 694 757 57 b 388 -312 757 -164 660 -312 b 56 -162 268 -312 156 -275 b 193 -40 56 -162 193 -40 b 389 -125 258 -99 307 -125 b 533 14 496 -125 526 -69 b 406 14 533 14 406 14 b 69 333 140 14 69 176 b 69 694 69 333 69 694 b 292 694 69 694 292 694 b 292 335 292 694 292 335 b 439 194 292 251 349 194 b 535 194 439 194 535 194 b 535 694 535 194 535 694 z "},"z":{"ha":646,"x_min":0,"x_max":0,"o":"m 42 514 b 42 694 42 514 42 694 b 604 694 42 694 604 694 b 604 514 604 694 604 514 b 311 181 604 514 311 181 b 604 181 311 181 604 181 b 604 0 604 181 604 0 b 42 0 604 0 42 0 b 42 181 42 0 42 181 b 335 514 42 181 335 514 b 42 514 335 514 42 514 z "},"{":{"ha":519,"x_min":0,"x_max":0,"o":"m 343 660 b 221 367 343 544 314 432 b 343 68 314 301 343 185 b 506 -194 343 -111 364 -194 b 506 -306 506 -194 506 -306 b 176 47 244 -306 176 -131 b 14 313 176 229 156 313 b 14 424 14 313 14 424 b 176 682 156 424 176 504 b 506 1028 176 857 244 1028 b 506 917 506 1028 506 917 b 343 660 364 917 343 835 z "},"|":{"ha":250,"x_min":0,"x_max":0,"o":"m 42 -306 b 42 1042 42 -306 42 1042 b 208 1042 42 1042 208 1042 b 208 -306 208 1042 208 -306 b 42 -306 208 -306 42 -306 z "},"}":{"ha":519,"x_min":0,"x_max":0,"o":"m 176 660 b 14 917 176 835 156 917 b 14 1028 14 917 14 1028 b 343 682 275 1028 343 857 b 506 424 343 504 364 424 b 506 313 506 424 506 313 b 343 47 364 313 343 229 b 14 -306 343 -131 275 -306 b 14 -194 14 -306 14 -194 b 176 68 156 -194 176 -111 b 299 367 176 185 206 301 b 176 660 206 432 176 544 z "},"¡":{"ha":306,"x_min":0,"x_max":0,"o":"m 42 674 b 153 785 42 740 86 785 b 264 674 219 785 264 740 b 153 563 264 607 219 563 b 42 674 86 563 42 607 z m 83 429 b 222 429 83 429 222 429 b 264 -208 222 429 264 -208 b 42 -208 264 -208 42 -208 b 83 429 42 -208 83 429 z "},"¢":{"ha":779,"x_min":0,"x_max":0,"o":"m 307 -197 b 307 -10 307 -197 307 -10 b 35 349 122 28 35 163 b 307 706 35 543 132 671 b 307 893 307 706 307 893 b 474 893 307 893 474 893 b 474 711 474 893 474 711 b 729 565 565 699 647 657 b 592 443 729 565 592 443 b 415 528 528 501 486 528 b 264 349 307 528 264 465 b 425 167 264 240 311 167 b 607 251 499 167 543 193 b 744 129 607 251 744 129 b 474 -18 660 35 569 -7 b 474 -197 474 -18 474 -197 b 307 -197 474 -197 307 -197 z "},"£":{"ha":782,"x_min":0,"x_max":0,"o":"m 14 0 b 14 181 14 0 14 181 b 18 181 14 181 18 181 b 142 439 113 249 136 314 b 14 439 142 439 14 439 b 14 550 14 439 14 550 b 143 550 14 550 143 550 b 143 636 143 576 143 606 b 438 993 143 846 253 993 b 754 843 567 993 654 956 b 617 721 754 843 617 721 b 475 806 553 779 524 806 b 365 601 390 806 365 722 b 365 550 365 583 365 565 b 663 550 365 550 663 550 b 663 439 663 550 663 439 b 365 439 663 439 365 439 b 240 181 361 318 340 250 b 719 181 240 181 719 181 b 719 0 719 181 719 0 b 14 0 719 0 14 0 z "},"¨":{"ha":493,"x_min":0,"x_max":0,"o":"m 42 797 b 125 881 42 847 75 881 b 208 797 175 881 208 847 b 125 714 208 747 175 714 b 42 797 75 714 42 747 z m 285 797 b 368 881 285 847 318 881 b 451 797 418 881 451 847 b 368 714 451 747 418 714 b 285 797 318 714 285 747 z "},"±":{"ha":556,"x_min":0,"x_max":0,"o":"m 42 389 b 42 500 42 389 42 500 b 222 500 42 500 222 500 b 222 681 222 500 222 681 b 333 681 222 681 333 681 b 333 500 333 681 333 500 b 514 500 333 500 514 500 b 514 389 514 500 514 389 b 333 389 514 389 333 389 b 333 208 333 389 333 208 b 222 208 333 208 222 208 b 222 389 222 208 222 389 b 42 389 222 389 42 389 z m 56 0 b 56 111 56 0 56 111 b 500 111 56 111 500 111 b 500 0 500 111 500 0 b 56 0 500 0 56 0 z "},"´":{"ha":339,"x_min":0,"x_max":0,"o":"m 101 701 b 42 761 101 701 42 761 b 199 957 42 761 199 957 b 297 858 199 957 297 858 b 101 701 297 858 101 701 z "},"¸":{"ha":408,"x_min":0,"x_max":0,"o":"m 293 0 b 261 -75 293 0 261 -75 b 367 -192 328 -92 367 -129 b 197 -326 367 -308 251 -326 b 42 -296 139 -326 96 -315 b 81 -218 42 -296 81 -218 b 188 -243 122 -235 150 -243 b 256 -200 228 -243 256 -235 b 181 -156 256 -168 219 -156 b 106 -156 181 -156 106 -156 b 171 0 106 -156 171 0 b 293 0 171 0 293 0 z "},"¿":{"ha":728,"x_min":0,"x_max":0,"o":"m 515 674 b 404 563 515 607 471 563 b 293 674 338 563 293 607 b 404 785 293 740 338 785 b 515 674 471 785 515 740 z m 271 43 b 386 -42 271 -7 308 -42 b 547 43 457 -42 490 -15 b 686 -79 547 43 686 -79 b 356 -229 590 -192 496 -229 b 42 49 160 -229 42 -106 b 342 429 42 293 342 261 b 481 429 342 429 481 429 b 271 43 481 204 271 171 z "},"À":{"ha":826,"x_min":0,"x_max":0,"o":"m 475 826 b 279 983 475 826 279 983 b 378 1082 279 983 378 1082 b 535 886 378 1082 535 886 b 475 826 535 886 475 826 z m 42 221 b 378 442 42 368 183 442 b 529 442 378 442 529 442 b 396 528 503 499 451 528 b 224 443 322 528 288 501 b 86 565 224 443 86 565 b 418 715 186 678 281 715 b 771 379 613 715 771 618 b 771 0 771 379 771 0 b 549 0 771 0 549 0 b 549 69 549 0 549 69 b 351 -21 510 13 444 -21 b 42 221 182 -21 42 69 z m 271 242 b 386 167 271 185 333 167 b 549 260 488 167 549 236 b 549 303 549 260 549 303 b 411 303 549 303 411 303 b 271 242 328 303 271 286 z "},"Á":{"ha":826,"x_min":0,"x_max":0,"o":"m 353 826 b 293 886 353 826 293 886 b 450 1082 293 886 450 1082 b 549 983 450 1082 549 983 b 353 826 549 983 353 826 z m 42 221 b 378 442 42 368 183 442 b 529 442 378 442 529 442 b 396 528 503 499 451 528 b 224 443 322 528 288 501 b 86 565 224 443 86 565 b 418 715 186 678 281 715 b 771 379 613 715 771 618 b 771 0 771 379 771 0 b 549 0 771 0 549 0 b 549 69 549 0 549 69 b 351 -21 510 13 444 -21 b 42 221 182 -21 42 69 z m 271 242 b 386 167 271 185 333 167 b 549 260 488 167 549 236 b 549 303 549 260 549 303 b 411 303 549 303 411 303 b 271 242 328 303 271 286 z "},"Â":{"ha":826,"x_min":0,"x_max":0,"o":"m 346 1060 b 468 1060 346 1060 468 1060 b 676 818 468 1060 676 818 b 514 818 676 818 514 818 b 407 972 514 818 407 972 b 300 818 407 972 300 818 b 138 818 300 818 138 818 b 346 1060 138 818 346 1060 z m 42 221 b 378 442 42 368 183 442 b 529 442 378 442 529 442 b 396 528 503 499 451 528 b 224 443 322 528 288 501 b 86 565 224 443 86 565 b 418 715 186 678 281 715 b 771 379 613 715 771 618 b 771 0 771 379 771 0 b 549 0 771 0 549 0 b 549 69 549 0 549 69 b 351 -21 510 13 444 -21 b 42 221 182 -21 42 69 z m 271 242 b 386 167 271 185 333 167 b 549 260 488 167 549 236 b 549 303 549 260 549 303 b 411 303 549 303 411 303 b 271 242 328 303 271 286 z "},"Ã":{"ha":826,"x_min":0,"x_max":0,"o":"m 150 819 b 317 1026 150 929 194 1026 b 513 908 456 1026 451 908 b 554 997 556 908 556 965 b 665 997 554 997 665 997 b 513 797 665 894 635 797 b 317 915 367 797 372 915 b 261 819 264 915 261 861 b 150 819 261 819 150 819 z m 42 221 b 378 442 42 368 183 442 b 529 442 378 442 529 442 b 396 528 503 499 451 528 b 224 443 322 528 288 501 b 86 565 224 443 86 565 b 418 715 186 678 281 715 b 771 379 613 715 771 618 b 771 0 771 379 771 0 b 549 0 771 0 549 0 b 549 69 549 0 549 69 b 351 -21 510 13 444 -21 b 42 221 182 -21 42 69 z m 271 242 b 386 167 271 185 333 167 b 549 260 488 167 549 236 b 549 303 549 260 549 303 b 411 303 549 303 411 303 b 271 242 328 303 271 286 z "},"Ä":{"ha":826,"x_min":0,"x_max":0,"o":"m 203 922 b 286 1006 203 972 236 1006 b 369 922 336 1006 369 972 b 286 839 369 872 336 839 b 203 922 236 839 203 872 z m 446 922 b 529 1006 446 972 479 1006 b 613 922 579 1006 613 972 b 529 839 613 872 579 839 b 446 922 479 839 446 872 z m 42 221 b 378 442 42 368 183 442 b 529 442 378 442 529 442 b 396 528 503 499 451 528 b 224 443 322 528 288 501 b 86 565 224 443 86 565 b 418 715 186 678 281 715 b 771 379 613 715 771 618 b 771 0 771 379 771 0 b 549 0 771 0 549 0 b 549 69 549 0 549 69 b 351 -21 510 13 444 -21 b 42 221 182 -21 42 69 z m 271 242 b 386 167 271 185 333 167 b 549 260 488 167 549 236 b 549 303 549 260 549 303 b 411 303 549 303 411 303 b 271 242 328 303 271 286 z "},"Å":{"ha":826,"x_min":0,"x_max":0,"o":"m 243 947 b 408 1085 243 1029 308 1085 b 571 947 506 1085 571 1029 b 408 810 571 865 506 810 b 243 947 308 810 243 865 z m 360 947 b 408 900 360 918 379 900 b 453 947 438 900 453 918 b 408 994 453 976 438 994 b 360 947 379 994 360 976 z m 42 221 b 378 442 42 368 183 442 b 529 442 378 442 529 442 b 396 528 503 499 451 528 b 224 443 322 528 288 501 b 86 565 224 443 86 565 b 418 715 186 678 281 715 b 771 379 613 715 771 618 b 771 0 771 379 771 0 b 549 0 771 0 549 0 b 549 69 549 0 549 69 b 351 -21 510 13 444 -21 b 42 221 182 -21 42 69 z m 271 242 b 386 167 271 185 333 167 b 549 260 488 167 549 236 b 549 303 549 260 549 303 b 411 303 549 303 411 303 b 271 242 328 303 271 286 z "},"Æ":{"ha":1301,"x_min":0,"x_max":0,"o":"m 42 221 b 378 442 42 368 183 442 b 529 442 378 442 529 442 b 396 528 503 499 451 528 b 224 443 322 528 288 501 b 86 565 224 443 86 565 b 418 715 186 678 281 715 b 665 639 514 715 601 692 b 899 715 724 688 801 715 b 1260 290 1164 715 1260 558 b 783 290 1260 290 783 290 b 931 167 797 215 843 167 b 1107 251 1001 167 1043 193 b 1244 129 1107 251 1244 129 b 925 -21 1144 17 1039 -21 b 626 97 786 -21 688 22 b 351 -21 568 26 457 -21 b 42 221 182 -21 42 69 z m 786 429 b 1043 429 786 429 1043 429 b 914 528 1024 493 983 528 b 786 429 842 528 803 490 z m 271 242 b 386 167 271 185 333 167 b 549 260 488 167 549 236 b 549 303 549 260 549 303 b 411 303 549 303 411 303 b 271 242 328 303 271 286 z "},"Ç":{"ha":779,"x_min":0,"x_max":0,"o":"m 235 -296 b 274 -218 235 -296 274 -218 b 381 -243 315 -235 343 -243 b 449 -200 421 -243 449 -235 b 374 -156 449 -168 413 -156 b 299 -156 374 -156 299 -156 b 357 -17 299 -156 357 -17 b 42 349 143 7 42 149 b 417 715 42 578 178 715 b 736 565 533 715 636 678 b 599 443 736 565 599 443 b 422 528 535 501 493 528 b 271 349 314 528 271 465 b 432 167 271 240 318 167 b 614 251 506 167 550 193 b 751 129 614 251 751 129 b 478 -18 667 33 575 -8 b 454 -75 478 -18 454 -75 b 560 -192 521 -92 560 -129 b 390 -326 560 -308 444 -326 b 235 -296 332 -326 289 -315 z "},"È":{"ha":794,"x_min":0,"x_max":0,"o":"m 465 826 b 269 983 465 826 269 983 b 368 1082 269 983 368 1082 b 525 886 368 1082 525 886 b 465 826 525 886 465 826 z m 753 290 b 276 290 753 290 276 290 b 424 167 290 215 336 167 b 600 251 494 167 536 193 b 738 129 600 251 738 129 b 418 -21 638 17 532 -21 b 42 349 163 -21 42 128 b 392 715 42 569 168 715 b 753 290 657 715 753 558 z m 279 429 b 536 429 279 429 536 429 b 407 528 517 493 476 528 b 279 429 335 528 296 490 z "},"É":{"ha":794,"x_min":0,"x_max":0,"o":"m 343 826 b 283 886 343 826 283 886 b 440 1082 283 886 440 1082 b 539 983 440 1082 539 983 b 343 826 539 983 343 826 z m 753 290 b 276 290 753 290 276 290 b 424 167 290 215 336 167 b 600 251 494 167 536 193 b 738 129 600 251 738 129 b 418 -21 638 17 532 -21 b 42 349 163 -21 42 128 b 392 715 42 569 168 715 b 753 290 657 715 753 558 z m 279 429 b 536 429 279 429 536 429 b 407 528 517 493 476 528 b 279 429 335 528 296 490 z "},"Ê":{"ha":794,"x_min":0,"x_max":0,"o":"m 336 1060 b 458 1060 336 1060 458 1060 b 667 818 458 1060 667 818 b 504 818 667 818 504 818 b 397 972 504 818 397 972 b 290 818 397 972 290 818 b 128 818 290 818 128 818 b 336 1060 128 818 336 1060 z m 753 290 b 276 290 753 290 276 290 b 424 167 290 215 336 167 b 600 251 494 167 536 193 b 738 129 600 251 738 129 b 418 -21 638 17 532 -21 b 42 349 163 -21 42 128 b 392 715 42 569 168 715 b 753 290 657 715 753 558 z m 279 429 b 536 429 279 429 536 429 b 407 528 517 493 476 528 b 279 429 335 528 296 490 z "},"Ë":{"ha":794,"x_min":0,"x_max":0,"o":"m 193 922 b 276 1006 193 972 226 1006 b 360 922 326 1006 360 972 b 276 839 360 872 326 839 b 193 922 226 839 193 872 z m 436 922 b 519 1006 436 972 469 1006 b 603 922 569 1006 603 972 b 519 839 603 872 569 839 b 436 922 469 839 436 872 z m 753 290 b 276 290 753 290 276 290 b 424 167 290 215 336 167 b 600 251 494 167 536 193 b 738 129 600 251 738 129 b 418 -21 638 17 532 -21 b 42 349 163 -21 42 128 b 392 715 42 569 168 715 b 753 290 657 715 753 558 z m 279 429 b 536 429 279 429 536 429 b 407 528 517 493 476 528 b 279 429 335 528 296 490 z "},"Ì":{"ha":361,"x_min":0,"x_max":0,"o":"m 249 806 b 53 963 249 806 53 963 b 151 1061 53 963 151 1061 b 308 865 151 1061 308 865 b 249 806 308 865 249 806 z m 69 194 b 69 694 69 194 69 694 b 292 694 69 694 292 694 b 292 0 292 694 292 0 b 264 0 292 0 264 0 b 69 194 147 0 69 78 z "},"Í":{"ha":361,"x_min":0,"x_max":0,"o":"m 126 806 b 67 865 126 806 67 865 b 224 1061 67 865 224 1061 b 322 963 224 1061 322 963 b 126 806 322 963 126 806 z m 69 194 b 69 694 69 194 69 694 b 292 694 69 694 292 694 b 292 0 292 694 292 0 b 264 0 292 0 264 0 b 69 194 147 0 69 78 z "},"Î":{"ha":361,"x_min":0,"x_max":0,"o":"m 119 1039 b 242 1039 119 1039 242 1039 b 450 797 242 1039 450 797 b 288 797 450 797 288 797 b 181 951 288 797 181 951 b 74 797 181 951 74 797 b -89 797 74 797 -89 797 b 119 1039 -89 797 119 1039 z m 69 194 b 69 694 69 194 69 694 b 292 694 69 694 292 694 b 292 0 292 694 292 0 b 264 0 292 0 264 0 b 69 194 147 0 69 78 z "},"Ï":{"ha":361,"x_min":0,"x_max":0,"o":"m -24 901 b 60 985 -24 951 10 985 b 143 901 110 985 143 951 b 60 818 143 851 110 818 b -24 901 10 818 -24 851 z m 219 901 b 303 985 219 951 253 985 b 386 901 353 985 386 951 b 303 818 386 851 353 818 b 219 901 253 818 219 851 z m 69 194 b 69 694 69 194 69 694 b 292 694 69 694 292 694 b 292 0 292 694 292 0 b 264 0 292 0 264 0 b 69 194 147 0 69 78 z "},"Ð":{"ha":918,"x_min":0,"x_max":0,"o":"m 549 0 b 549 69 549 0 549 69 b 374 -21 508 10 450 -21 b 42 338 182 -21 42 124 b 378 694 42 553 183 694 b 549 694 378 694 549 694 b 549 792 549 694 549 792 b 404 792 549 792 404 792 b 404 903 404 792 404 903 b 549 903 404 903 549 903 b 549 1042 549 903 549 1042 b 771 1042 549 1042 771 1042 b 771 903 771 1042 771 903 b 904 903 771 903 904 903 b 904 792 904 903 904 792 b 771 792 904 792 771 792 b 771 0 771 792 771 0 b 549 0 771 0 549 0 z m 271 339 b 411 167 271 236 328 167 b 549 340 496 167 549 236 b 549 514 549 340 549 514 b 411 514 549 514 411 514 b 271 339 328 514 271 443 z "},"Ñ":{"ha":785,"x_min":0,"x_max":0,"o":"m 129 799 b 296 1006 129 908 174 1006 b 492 888 435 1006 431 888 b 533 976 535 888 535 944 b 644 976 533 976 644 976 b 492 776 644 874 614 776 b 296 894 346 776 351 894 b 240 799 243 894 240 840 b 129 799 240 799 129 799 z m 264 0 b 42 0 264 0 42 0 b 42 694 42 0 42 694 b 393 694 42 694 393 694 b 729 369 658 694 729 528 b 729 0 729 369 729 0 b 507 0 729 0 507 0 b 507 369 507 0 507 369 b 360 514 507 456 450 514 b 264 514 360 514 264 514 b 264 0 264 514 264 0 z "},"Ò":{"ha":808,"x_min":0,"x_max":0,"o":"m 472 826 b 276 983 472 826 276 983 b 375 1082 276 983 375 1082 b 532 886 375 1082 532 886 b 472 826 532 886 472 826 z m 42 349 b 404 715 42 569 186 715 b 767 349 622 715 767 569 b 404 -21 767 128 622 -21 b 42 349 186 -21 42 128 z m 271 347 b 404 167 271 239 325 167 b 538 347 483 167 538 239 b 404 528 538 456 483 528 b 271 347 325 528 271 456 z "},"Ó":{"ha":808,"x_min":0,"x_max":0,"o":"m 350 826 b 290 886 350 826 290 886 b 447 1082 290 886 447 1082 b 546 983 447 1082 546 983 b 350 826 546 983 350 826 z m 42 349 b 404 715 42 569 186 715 b 767 349 622 715 767 569 b 404 -21 767 128 622 -21 b 42 349 186 -21 42 128 z m 271 347 b 404 167 271 239 325 167 b 538 347 483 167 538 239 b 404 528 538 456 483 528 b 271 347 325 528 271 456 z "},"Ô":{"ha":808,"x_min":0,"x_max":0,"o":"m 343 1060 b 465 1060 343 1060 465 1060 b 674 818 465 1060 674 818 b 511 818 674 818 511 818 b 404 972 511 818 404 972 b 297 818 404 972 297 818 b 135 818 297 818 135 818 b 343 1060 135 818 343 1060 z m 42 349 b 404 715 42 569 186 715 b 767 349 622 715 767 569 b 404 -21 767 128 622 -21 b 42 349 186 -21 42 128 z m 271 347 b 404 167 271 239 325 167 b 538 347 483 167 538 239 b 404 528 538 456 483 528 b 271 347 325 528 271 456 z "},"Õ":{"ha":808,"x_min":0,"x_max":0,"o":"m 147 819 b 314 1026 147 929 192 1026 b 510 908 453 1026 449 908 b 551 997 553 908 553 965 b 663 997 551 997 663 997 b 510 797 663 894 632 797 b 314 915 364 797 369 915 b 258 819 261 915 258 861 b 147 819 258 819 147 819 z m 42 349 b 404 715 42 569 186 715 b 767 349 622 715 767 569 b 404 -21 767 128 622 -21 b 42 349 186 -21 42 128 z m 271 347 b 404 167 271 239 325 167 b 538 347 483 167 538 239 b 404 528 538 456 483 528 b 271 347 325 528 271 456 z "},"Ö":{"ha":808,"x_min":0,"x_max":0,"o":"m 200 922 b 283 1006 200 972 233 1006 b 367 922 333 1006 367 972 b 283 839 367 872 333 839 b 200 922 233 839 200 872 z m 443 922 b 526 1006 443 972 476 1006 b 610 922 576 1006 610 972 b 526 839 610 872 576 839 b 443 922 476 839 443 872 z m 42 349 b 404 715 42 569 186 715 b 767 349 622 715 767 569 b 404 -21 767 128 622 -21 b 42 349 186 -21 42 128 z m 271 347 b 404 167 271 239 325 167 b 538 347 483 167 538 239 b 404 528 538 456 483 528 b 271 347 325 528 271 456 z "},"×":{"ha":494,"x_min":0,"x_max":0,"o":"m 42 572 b 119 650 42 572 119 650 b 247 522 119 650 247 522 b 375 650 247 522 375 650 b 453 572 375 650 453 572 b 325 444 453 572 325 444 b 453 317 325 444 453 317 b 375 239 453 317 375 239 b 247 367 375 239 247 367 b 119 239 247 367 119 239 b 42 317 119 239 42 317 b 169 444 42 317 169 444 b 42 572 169 444 42 572 z "},"Ø":{"ha":808,"x_min":0,"x_max":0,"o":"m 42 349 b 404 715 42 569 186 715 b 481 708 431 715 457 713 b 539 833 481 708 539 833 b 724 833 539 833 724 833 b 635 643 724 833 635 643 b 767 349 718 579 767 476 b 404 -21 767 128 622 -21 b 329 -14 378 -21 353 -18 b 271 -139 329 -14 271 -139 b 86 -139 271 -139 86 -139 b 175 51 86 -139 175 51 b 42 349 90 115 42 219 z m 271 347 b 279 276 271 321 274 297 b 396 528 279 276 396 528 b 271 347 321 524 271 451 z m 529 415 b 414 167 529 415 414 167 b 538 347 488 172 538 243 b 529 415 538 372 535 396 z "},"Ù":{"ha":831,"x_min":0,"x_max":0,"o":"m 483 806 b 288 963 483 806 288 963 b 386 1061 288 963 386 1061 b 543 865 386 1061 543 865 b 483 806 543 865 483 806 z m 415 167 b 553 314 494 167 553 217 b 553 694 553 314 553 694 b 775 694 553 694 775 694 b 775 325 775 694 775 325 b 415 -21 775 161 682 -21 b 56 325 150 -21 56 161 b 56 694 56 325 56 694 b 278 694 56 694 278 694 b 278 314 278 694 278 314 b 415 167 278 217 336 167 z "},"Ú":{"ha":831,"x_min":0,"x_max":0,"o":"m 361 806 b 301 865 361 806 301 865 b 458 1061 301 865 458 1061 b 557 963 458 1061 557 963 b 361 806 557 963 361 806 z m 415 167 b 553 314 494 167 553 217 b 553 694 553 314 553 694 b 775 694 553 694 775 694 b 775 325 775 694 775 325 b 415 -21 775 161 682 -21 b 56 325 150 -21 56 161 b 56 694 56 325 56 694 b 278 694 56 694 278 694 b 278 314 278 694 278 314 b 415 167 278 217 336 167 z "},"Û":{"ha":831,"x_min":0,"x_max":0,"o":"m 354 1039 b 476 1039 354 1039 476 1039 b 685 797 476 1039 685 797 b 522 797 685 797 522 797 b 415 951 522 797 415 951 b 308 797 415 951 308 797 b 146 797 308 797 146 797 b 354 1039 146 797 354 1039 z m 415 167 b 553 314 494 167 553 217 b 553 694 553 314 553 694 b 775 694 553 694 775 694 b 775 325 775 694 775 325 b 415 -21 775 161 682 -21 b 56 325 150 -21 56 161 b 56 694 56 325 56 694 b 278 694 56 694 278 694 b 278 314 278 694 278 314 b 415 167 278 217 336 167 z "},"Ü":{"ha":831,"x_min":0,"x_max":0,"o":"m 211 901 b 294 985 211 951 244 985 b 378 901 344 985 378 951 b 294 818 378 851 344 818 b 211 901 244 818 211 851 z m 454 901 b 538 985 454 951 488 985 b 621 901 588 985 621 951 b 538 818 621 851 588 818 b 454 901 488 818 454 851 z m 415 167 b 553 314 494 167 553 217 b 553 694 553 314 553 694 b 775 694 553 694 775 694 b 775 325 775 694 775 325 b 415 -21 775 161 682 -21 b 56 325 150 -21 56 161 b 56 694 56 325 56 694 b 278 694 56 694 278 694 b 278 314 278 694 278 314 b 415 167 278 217 336 167 z "},"Ý":{"ha":813,"x_min":0,"x_max":0,"o":"m 353 806 b 293 865 353 806 293 865 b 450 1061 293 865 450 1061 b 549 963 450 1061 549 963 b 353 806 549 963 353 806 z m 535 694 b 757 694 535 694 757 694 b 757 57 757 694 757 57 b 388 -312 757 -164 660 -312 b 56 -162 268 -312 156 -275 b 193 -40 56 -162 193 -40 b 389 -125 258 -99 307 -125 b 533 14 496 -125 526 -69 b 406 14 533 14 406 14 b 69 333 140 14 69 176 b 69 694 69 333 69 694 b 292 694 69 694 292 694 b 292 335 292 694 292 335 b 439 194 292 251 349 194 b 535 194 439 194 535 194 b 535 694 535 194 535 694 z "},"Þ":{"ha":840,"x_min":0,"x_max":0,"o":"m 435 0 b 292 0 435 0 292 0 b 292 -306 292 0 292 -306 b 69 -306 292 -306 69 -306 b 69 1042 69 -306 69 1042 b 292 1042 69 1042 292 1042 b 292 694 292 1042 292 694 b 463 694 292 694 463 694 b 799 347 657 694 799 557 b 435 0 799 140 626 0 z m 569 346 b 429 514 569 446 513 514 b 292 514 429 514 292 514 b 292 181 292 514 292 181 b 429 181 292 181 429 181 b 569 346 513 181 569 247 z "},"ß":{"ha":940,"x_min":0,"x_max":0,"o":"m 494 763 b 392 850 494 824 444 850 b 278 694 300 850 278 761 b 278 0 278 694 278 0 b 56 0 278 0 56 0 b 56 694 56 0 56 694 b 390 1031 56 900 185 1031 b 724 815 532 1031 724 982 b 494 561 724 643 494 586 b 899 231 494 501 899 514 b 618 -21 899 79 761 -21 b 332 129 474 -21 415 17 b 469 251 332 129 469 251 b 604 167 511 193 547 167 b 676 242 638 167 676 185 b 346 532 676 372 346 385 b 494 763 346 633 494 672 z "},"à":{"ha":840,"x_min":0,"x_max":0,"o":"m 538 806 b 342 963 538 806 342 963 b 440 1061 342 963 440 1061 b 597 865 440 1061 597 865 b 538 806 597 865 538 806 z m 549 0 b 549 69 549 0 549 69 b 374 -21 508 10 450 -21 b 42 338 182 -21 42 124 b 378 694 42 553 183 694 b 771 694 378 694 771 694 b 771 0 771 694 771 0 b 549 0 771 0 549 0 z m 271 339 b 411 167 271 236 328 167 b 549 340 496 167 549 236 b 549 514 549 340 549 514 b 411 514 549 514 411 514 b 271 339 328 514 271 443 z "},"á":{"ha":840,"x_min":0,"x_max":0,"o":"m 415 806 b 356 865 415 806 356 865 b 513 1061 356 865 513 1061 b 611 963 513 1061 611 963 b 415 806 611 963 415 806 z m 549 0 b 549 69 549 0 549 69 b 374 -21 508 10 450 -21 b 42 338 182 -21 42 124 b 378 694 42 553 183 694 b 771 694 378 694 771 694 b 771 0 771 694 771 0 b 549 0 771 0 549 0 z m 271 339 b 411 167 271 236 328 167 b 549 340 496 167 549 236 b 549 514 549 340 549 514 b 411 514 549 514 411 514 b 271 339 328 514 271 443 z "},"â":{"ha":840,"x_min":0,"x_max":0,"o":"m 408 1039 b 531 1039 408 1039 531 1039 b 739 797 531 1039 739 797 b 576 797 739 797 576 797 b 469 951 576 797 469 951 b 363 797 469 951 363 797 b 200 797 363 797 200 797 b 408 1039 200 797 408 1039 z m 549 0 b 549 69 549 0 549 69 b 374 -21 508 10 450 -21 b 42 338 182 -21 42 124 b 378 694 42 553 183 694 b 771 694 378 694 771 694 b 771 0 771 694 771 0 b 549 0 771 0 549 0 z m 271 339 b 411 167 271 236 328 167 b 549 340 496 167 549 236 b 549 514 549 340 549 514 b 411 514 549 514 411 514 b 271 339 328 514 271 443 z "},"ã":{"ha":840,"x_min":0,"x_max":0,"o":"m 213 799 b 379 1006 213 908 257 1006 b 575 888 518 1006 514 888 b 617 976 618 888 618 944 b 728 976 617 976 728 976 b 575 776 728 874 697 776 b 379 894 429 776 435 894 b 324 799 326 894 324 840 b 213 799 324 799 213 799 z m 549 0 b 549 69 549 0 549 69 b 374 -21 508 10 450 -21 b 42 338 182 -21 42 124 b 378 694 42 553 183 694 b 771 694 378 694 771 694 b 771 0 771 694 771 0 b 549 0 771 0 549 0 z m 271 339 b 411 167 271 236 328 167 b 549 340 496 167 549 236 b 549 514 549 340 549 514 b 411 514 549 514 411 514 b 271 339 328 514 271 443 z "},"ä":{"ha":840,"x_min":0,"x_max":0,"o":"m 265 901 b 349 985 265 951 299 985 b 432 901 399 985 432 951 b 349 818 432 851 399 818 b 265 901 299 818 265 851 z m 508 901 b 592 985 508 951 542 985 b 675 901 642 985 675 951 b 592 818 675 851 642 818 b 508 901 542 818 508 851 z m 549 0 b 549 69 549 0 549 69 b 374 -21 508 10 450 -21 b 42 338 182 -21 42 124 b 378 694 42 553 183 694 b 771 694 378 694 771 694 b 771 0 771 694 771 0 b 549 0 771 0 549 0 z m 271 339 b 411 167 271 236 328 167 b 549 340 496 167 549 236 b 549 514 549 340 549 514 b 411 514 549 514 411 514 b 271 339 328 514 271 443 z "},"å":{"ha":840,"x_min":0,"x_max":0,"o":"m 306 926 b 471 1064 306 1008 371 1064 b 633 926 568 1064 633 1008 b 471 789 633 844 568 789 b 306 926 371 789 306 844 z m 422 926 b 471 879 422 897 442 879 b 515 926 500 879 515 897 b 471 974 515 956 500 974 b 422 926 442 974 422 956 z m 549 0 b 549 69 549 0 549 69 b 374 -21 508 10 450 -21 b 42 338 182 -21 42 124 b 378 694 42 553 183 694 b 771 694 378 694 771 694 b 771 0 771 694 771 0 b 549 0 771 0 549 0 z m 271 339 b 411 167 271 236 328 167 b 549 340 496 167 549 236 b 549 514 549 340 549 514 b 411 514 549 514 411 514 b 271 339 328 514 271 443 z "},"æ":{"ha":1421,"x_min":0,"x_max":0,"o":"m 549 0 b 549 69 549 0 549 69 b 374 -21 508 10 450 -21 b 42 338 182 -21 42 124 b 378 694 42 553 183 694 b 771 694 378 694 771 694 b 771 626 771 694 771 626 b 1018 715 831 683 914 715 b 1379 290 1283 715 1379 558 b 903 290 1379 290 903 290 b 1050 167 917 215 963 167 b 1226 251 1121 167 1163 193 b 1364 129 1226 251 1364 129 b 1044 -21 1264 17 1158 -21 b 771 71 924 -21 833 13 b 771 0 771 71 771 0 b 549 0 771 0 549 0 z m 906 429 b 1163 429 906 429 1163 429 b 1033 528 1143 493 1103 528 b 906 429 961 528 922 490 z m 271 339 b 411 167 271 236 328 167 b 549 340 496 167 549 236 b 549 514 549 340 549 514 b 411 514 549 514 411 514 b 271 339 328 514 271 443 z "},"ç":{"ha":779,"x_min":0,"x_max":0,"o":"m 235 -296 b 274 -218 235 -296 274 -218 b 381 -243 315 -235 343 -243 b 449 -200 421 -243 449 -235 b 374 -156 449 -168 413 -156 b 299 -156 374 -156 299 -156 b 357 -17 299 -156 357 -17 b 42 349 143 7 42 149 b 417 715 42 578 178 715 b 736 565 533 715 636 678 b 599 443 736 565 599 443 b 422 528 535 501 493 528 b 271 349 314 528 271 465 b 432 167 271 240 318 167 b 614 251 506 167 550 193 b 751 129 614 251 751 129 b 478 -18 667 33 575 -8 b 454 -75 478 -18 454 -75 b 560 -192 521 -92 560 -129 b 390 -326 560 -308 444 -326 b 235 -296 332 -326 289 -315 z "},"è":{"ha":794,"x_min":0,"x_max":0,"o":"m 465 826 b 269 983 465 826 269 983 b 368 1082 269 983 368 1082 b 525 886 368 1082 525 886 b 465 826 525 886 465 826 z m 753 290 b 276 290 753 290 276 290 b 424 167 290 215 336 167 b 600 251 494 167 536 193 b 738 129 600 251 738 129 b 418 -21 638 17 532 -21 b 42 349 163 -21 42 128 b 392 715 42 569 168 715 b 753 290 657 715 753 558 z m 279 429 b 536 429 279 429 536 429 b 407 528 517 493 476 528 b 279 429 335 528 296 490 z "},"é":{"ha":794,"x_min":0,"x_max":0,"o":"m 343 826 b 283 886 343 826 283 886 b 440 1082 283 886 440 1082 b 539 983 440 1082 539 983 b 343 826 539 983 343 826 z m 753 290 b 276 290 753 290 276 290 b 424 167 290 215 336 167 b 600 251 494 167 536 193 b 738 129 600 251 738 129 b 418 -21 638 17 532 -21 b 42 349 163 -21 42 128 b 392 715 42 569 168 715 b 753 290 657 715 753 558 z m 279 429 b 536 429 279 429 536 429 b 407 528 517 493 476 528 b 279 429 335 528 296 490 z "},"ê":{"ha":794,"x_min":0,"x_max":0,"o":"m 336 1060 b 458 1060 336 1060 458 1060 b 667 818 458 1060 667 818 b 504 818 667 818 504 818 b 397 972 504 818 397 972 b 290 818 397 972 290 818 b 128 818 290 818 128 818 b 336 1060 128 818 336 1060 z m 753 290 b 276 290 753 290 276 290 b 424 167 290 215 336 167 b 600 251 494 167 536 193 b 738 129 600 251 738 129 b 418 -21 638 17 532 -21 b 42 349 163 -21 42 128 b 392 715 42 569 168 715 b 753 290 657 715 753 558 z m 279 429 b 536 429 279 429 536 429 b 407 528 517 493 476 528 b 279 429 335 528 296 490 z "},"ë":{"ha":794,"x_min":0,"x_max":0,"o":"m 193 922 b 276 1006 193 972 226 1006 b 360 922 326 1006 360 972 b 276 839 360 872 326 839 b 193 922 226 839 193 872 z m 436 922 b 519 1006 436 972 469 1006 b 603 922 569 1006 603 972 b 519 839 603 872 569 839 b 436 922 469 839 436 872 z m 753 290 b 276 290 753 290 276 290 b 424 167 290 215 336 167 b 600 251 494 167 536 193 b 738 129 600 251 738 129 b 418 -21 638 17 532 -21 b 42 349 163 -21 42 128 b 392 715 42 569 168 715 b 753 290 657 715 753 558 z m 279 429 b 536 429 279 429 536 429 b 407 528 517 493 476 528 b 279 429 335 528 296 490 z "},"ì":{"ha":361,"x_min":0,"x_max":0,"o":"m 249 806 b 53 963 249 806 53 963 b 151 1061 53 963 151 1061 b 308 865 151 1061 308 865 b 249 806 308 865 249 806 z m 69 194 b 69 694 69 194 69 694 b 292 694 69 694 292 694 b 292 0 292 694 292 0 b 264 0 292 0 264 0 b 69 194 147 0 69 78 z "},"í":{"ha":361,"x_min":0,"x_max":0,"o":"m 126 806 b 67 865 126 806 67 865 b 224 1061 67 865 224 1061 b 322 963 224 1061 322 963 b 126 806 322 963 126 806 z m 69 194 b 69 694 69 194 69 694 b 292 694 69 694 292 694 b 292 0 292 694 292 0 b 264 0 292 0 264 0 b 69 194 147 0 69 78 z "},"î":{"ha":361,"x_min":0,"x_max":0,"o":"m 119 1039 b 242 1039 119 1039 242 1039 b 450 797 242 1039 450 797 b 288 797 450 797 288 797 b 181 951 288 797 181 951 b 74 797 181 951 74 797 b -89 797 74 797 -89 797 b 119 1039 -89 797 119 1039 z m 69 194 b 69 694 69 194 69 694 b 292 694 69 694 292 694 b 292 0 292 694 292 0 b 264 0 292 0 264 0 b 69 194 147 0 69 78 z "},"ï":{"ha":361,"x_min":0,"x_max":0,"o":"m -24 901 b 60 985 -24 951 10 985 b 143 901 110 985 143 951 b 60 818 143 851 110 818 b -24 901 10 818 -24 851 z m 219 901 b 303 985 219 951 253 985 b 386 901 353 985 386 951 b 303 818 386 851 353 818 b 219 901 253 818 219 851 z m 69 194 b 69 694 69 194 69 694 b 292 694 69 694 292 694 b 292 0 292 694 292 0 b 264 0 292 0 264 0 b 69 194 147 0 69 78 z "},"ð":{"ha":836,"x_min":0,"x_max":0,"o":"m 206 899 b 282 1042 206 899 282 1042 b 533 918 354 1024 447 983 b 681 993 533 918 681 993 b 731 893 681 993 731 893 b 624 839 731 893 624 839 b 794 401 721 735 794 592 b 418 -21 794 119 658 -21 b 42 318 204 -21 42 72 b 389 622 42 507 192 622 b 521 603 439 622 482 615 b 428 739 496 656 464 700 b 310 679 428 739 310 679 b 260 778 310 679 260 778 b 340 819 260 778 340 819 b 206 899 290 857 242 883 z m 565 374 b 413 435 524 410 476 435 b 271 299 324 435 271 372 b 408 167 271 224 328 167 b 565 374 510 167 558 236 z "},"ñ":{"ha":785,"x_min":0,"x_max":0,"o":"m 129 799 b 296 1006 129 908 174 1006 b 492 888 435 1006 431 888 b 533 976 535 888 535 944 b 644 976 533 976 644 976 b 492 776 644 874 614 776 b 296 894 346 776 351 894 b 240 799 243 894 240 840 b 129 799 240 799 129 799 z m 264 0 b 42 0 264 0 42 0 b 42 694 42 0 42 694 b 393 694 42 694 393 694 b 729 369 658 694 729 528 b 729 0 729 369 729 0 b 507 0 729 0 507 0 b 507 369 507 0 507 369 b 360 514 507 456 450 514 b 264 514 360 514 264 514 b 264 0 264 514 264 0 z "},"ò":{"ha":808,"x_min":0,"x_max":0,"o":"m 472 826 b 276 983 472 826 276 983 b 375 1082 276 983 375 1082 b 532 886 375 1082 532 886 b 472 826 532 886 472 826 z m 42 349 b 404 715 42 569 186 715 b 767 349 622 715 767 569 b 404 -21 767 128 622 -21 b 42 349 186 -21 42 128 z m 271 347 b 404 167 271 239 325 167 b 538 347 483 167 538 239 b 404 528 538 456 483 528 b 271 347 325 528 271 456 z "},"ó":{"ha":808,"x_min":0,"x_max":0,"o":"m 350 826 b 290 886 350 826 290 886 b 447 1082 290 886 447 1082 b 546 983 447 1082 546 983 b 350 826 546 983 350 826 z m 42 349 b 404 715 42 569 186 715 b 767 349 622 715 767 569 b 404 -21 767 128 622 -21 b 42 349 186 -21 42 128 z m 271 347 b 404 167 271 239 325 167 b 538 347 483 167 538 239 b 404 528 538 456 483 528 b 271 347 325 528 271 456 z "},"ô":{"ha":808,"x_min":0,"x_max":0,"o":"m 343 1060 b 465 1060 343 1060 465 1060 b 674 818 465 1060 674 818 b 511 818 674 818 511 818 b 404 972 511 818 404 972 b 297 818 404 972 297 818 b 135 818 297 818 135 818 b 343 1060 135 818 343 1060 z m 42 349 b 404 715 42 569 186 715 b 767 349 622 715 767 569 b 404 -21 767 128 622 -21 b 42 349 186 -21 42 128 z m 271 347 b 404 167 271 239 325 167 b 538 347 483 167 538 239 b 404 528 538 456 483 528 b 271 347 325 528 271 456 z "},"õ":{"ha":808,"x_min":0,"x_max":0,"o":"m 147 819 b 314 1026 147 929 192 1026 b 510 908 453 1026 449 908 b 551 997 553 908 553 965 b 663 997 551 997 663 997 b 510 797 663 894 632 797 b 314 915 364 797 369 915 b 258 819 261 915 258 861 b 147 819 258 819 147 819 z m 42 349 b 404 715 42 569 186 715 b 767 349 622 715 767 569 b 404 -21 767 128 622 -21 b 42 349 186 -21 42 128 z m 271 347 b 404 167 271 239 325 167 b 538 347 483 167 538 239 b 404 528 538 456 483 528 b 271 347 325 528 271 456 z "},"ö":{"ha":808,"x_min":0,"x_max":0,"o":"m 200 922 b 283 1006 200 972 233 1006 b 367 922 333 1006 367 972 b 283 839 367 872 333 839 b 200 922 233 839 200 872 z m 443 922 b 526 1006 443 972 476 1006 b 610 922 576 1006 610 972 b 526 839 610 872 576 839 b 443 922 476 839 443 872 z m 42 349 b 404 715 42 569 186 715 b 767 349 622 715 767 569 b 404 -21 767 128 622 -21 b 42 349 186 -21 42 128 z m 271 347 b 404 167 271 239 325 167 b 538 347 483 167 538 239 b 404 528 538 456 483 528 b 271 347 325 528 271 456 z "},"÷":{"ha":528,"x_min":0,"x_max":0,"o":"m 153 632 b 264 743 153 699 197 743 b 375 632 331 743 375 699 b 264 521 375 565 331 521 b 153 632 197 521 153 565 z m 42 340 b 42 451 42 340 42 451 b 486 451 42 451 486 451 b 486 340 486 451 486 340 b 42 340 486 340 42 340 z m 153 160 b 264 271 153 226 197 271 b 375 160 331 271 375 226 b 264 49 375 93 331 49 b 153 160 197 49 153 93 z "},"ø":{"ha":808,"x_min":0,"x_max":0,"o":"m 42 349 b 404 715 42 569 186 715 b 481 708 431 715 457 713 b 539 833 481 708 539 833 b 724 833 539 833 724 833 b 635 643 724 833 635 643 b 767 349 718 579 767 476 b 404 -21 767 128 622 -21 b 329 -14 378 -21 353 -18 b 271 -139 329 -14 271 -139 b 86 -139 271 -139 86 -139 b 175 51 86 -139 175 51 b 42 349 90 115 42 219 z m 271 347 b 279 276 271 321 274 297 b 396 528 279 276 396 528 b 271 347 321 524 271 451 z m 529 415 b 414 167 529 415 414 167 b 538 347 488 172 538 243 b 529 415 538 372 535 396 z "},"ù":{"ha":813,"x_min":0,"x_max":0,"o":"m 468 806 b 272 963 468 806 272 963 b 371 1061 272 963 371 1061 b 528 865 371 1061 528 865 b 468 806 528 865 468 806 z m 521 694 b 743 694 521 694 743 694 b 743 0 743 694 743 0 b 392 0 743 0 392 0 b 56 325 126 0 56 167 b 56 694 56 325 56 694 b 278 694 56 694 278 694 b 278 325 278 694 278 325 b 425 181 278 239 335 181 b 521 181 425 181 521 181 b 521 694 521 181 521 694 z "},"ú":{"ha":813,"x_min":0,"x_max":0,"o":"m 346 806 b 286 865 346 806 286 865 b 443 1061 286 865 443 1061 b 542 963 443 1061 542 963 b 346 806 542 963 346 806 z m 521 694 b 743 694 521 694 743 694 b 743 0 743 694 743 0 b 392 0 743 0 392 0 b 56 325 126 0 56 167 b 56 694 56 325 56 694 b 278 694 56 694 278 694 b 278 325 278 694 278 325 b 425 181 278 239 335 181 b 521 181 425 181 521 181 b 521 694 521 181 521 694 z "},"û":{"ha":813,"x_min":0,"x_max":0,"o":"m 339 1039 b 461 1039 339 1039 461 1039 b 669 797 461 1039 669 797 b 507 797 669 797 507 797 b 400 951 507 797 400 951 b 293 797 400 951 293 797 b 131 797 293 797 131 797 b 339 1039 131 797 339 1039 z m 521 694 b 743 694 521 694 743 694 b 743 0 743 694 743 0 b 392 0 743 0 392 0 b 56 325 126 0 56 167 b 56 694 56 325 56 694 b 278 694 56 694 278 694 b 278 325 278 694 278 325 b 425 181 278 239 335 181 b 521 181 425 181 521 181 b 521 694 521 181 521 694 z "},"ü":{"ha":813,"x_min":0,"x_max":0,"o":"m 196 901 b 279 985 196 951 229 985 b 363 901 329 985 363 951 b 279 818 363 851 329 818 b 196 901 229 818 196 851 z m 439 901 b 522 985 439 951 472 985 b 606 901 572 985 606 951 b 522 818 606 851 572 818 b 439 901 472 818 439 851 z m 521 694 b 743 694 521 694 743 694 b 743 0 743 694 743 0 b 392 0 743 0 392 0 b 56 325 126 0 56 167 b 56 694 56 325 56 694 b 278 694 56 694 278 694 b 278 325 278 694 278 325 b 425 181 278 239 335 181 b 521 181 425 181 521 181 b 521 694 521 181 521 694 z "},"ý":{"ha":813,"x_min":0,"x_max":0,"o":"m 353 806 b 293 865 353 806 293 865 b 450 1061 293 865 450 1061 b 549 963 450 1061 549 963 b 353 806 549 963 353 806 z m 535 694 b 757 694 535 694 757 694 b 757 57 757 694 757 57 b 388 -312 757 -164 660 -312 b 56 -162 268 -312 156 -275 b 193 -40 56 -162 193 -40 b 389 -125 258 -99 307 -125 b 533 14 496 -125 526 -69 b 406 14 533 14 406 14 b 69 333 140 14 69 176 b 69 694 69 333 69 694 b 292 694 69 694 292 694 b 292 335 292 694 292 335 b 439 194 292 251 349 194 b 535 194 439 194 535 194 b 535 694 535 194 535 694 z "},"þ":{"ha":840,"x_min":0,"x_max":0,"o":"m 435 0 b 292 0 435 0 292 0 b 292 -306 292 0 292 -306 b 69 -306 292 -306 69 -306 b 69 1042 69 -306 69 1042 b 292 1042 69 1042 292 1042 b 292 694 292 1042 292 694 b 463 694 292 694 463 694 b 799 347 657 694 799 557 b 435 0 799 140 626 0 z m 569 346 b 429 514 569 446 513 514 b 292 514 429 514 292 514 b 292 181 292 514 292 181 b 429 181 292 181 429 181 b 569 346 513 181 569 247 z "},"ÿ":{"ha":813,"x_min":0,"x_max":0,"o":"m 203 901 b 286 985 203 951 236 985 b 369 901 336 985 369 951 b 286 818 369 851 336 818 b 203 901 236 818 203 851 z m 446 901 b 529 985 446 951 479 985 b 613 901 579 985 613 951 b 529 818 613 851 579 818 b 446 901 479 818 446 851 z m 535 694 b 757 694 535 694 757 694 b 757 57 757 694 757 57 b 388 -312 757 -164 660 -312 b 56 -162 268 -312 156 -275 b 193 -40 56 -162 193 -40 b 389 -125 258 -99 307 -125 b 533 14 496 -125 526 -69 b 406 14 533 14 406 14 b 69 333 140 14 69 176 b 69 694 69 333 69 694 b 292 694 69 694 292 694 b 292 335 292 694 292 335 b 439 194 292 251 349 194 b 535 194 439 194 535 194 b 535 694 535 194 535 694 z "},"Đ":{"ha":918,"x_min":0,"x_max":0,"o":"m 549 0 b 549 69 549 0 549 69 b 374 -21 508 10 450 -21 b 42 338 182 -21 42 124 b 378 694 42 553 183 694 b 549 694 378 694 549 694 b 549 792 549 694 549 792 b 404 792 549 792 404 792 b 404 903 404 792 404 903 b 549 903 404 903 549 903 b 549 1042 549 903 549 1042 b 771 1042 549 1042 771 1042 b 771 903 771 1042 771 903 b 904 903 771 903 904 903 b 904 792 904 903 904 792 b 771 792 904 792 771 792 b 771 0 771 792 771 0 b 549 0 771 0 549 0 z m 271 339 b 411 167 271 236 328 167 b 549 340 496 167 549 236 b 549 514 549 340 549 514 b 411 514 549 514 411 514 b 271 339 328 514 271 443 z "},"đ":{"ha":918,"x_min":0,"x_max":0,"o":"m 549 0 b 549 69 549 0 549 69 b 374 -21 508 10 450 -21 b 42 338 182 -21 42 124 b 378 694 42 553 183 694 b 549 694 378 694 549 694 b 549 792 549 694 549 792 b 404 792 549 792 404 792 b 404 903 404 792 404 903 b 549 903 404 903 549 903 b 549 1042 549 903 549 1042 b 771 1042 549 1042 771 1042 b 771 903 771 1042 771 903 b 904 903 771 903 904 903 b 904 792 904 903 904 792 b 771 792 904 792 771 792 b 771 0 771 792 771 0 b 549 0 771 0 549 0 z m 271 339 b 411 167 271 236 328 167 b 549 340 496 167 549 236 b 549 514 549 340 549 514 b 411 514 549 514 411 514 b 271 339 328 514 271 443 z "},"ı":{"ha":361,"x_min":0,"x_max":0,"o":"m 69 194 b 69 694 69 194 69 694 b 292 694 69 694 292 694 b 292 0 292 694 292 0 b 264 0 292 0 264 0 b 69 194 147 0 69 78 z "},"Ł":{"ha":601,"x_min":0,"x_max":0,"o":"m 189 194 b 189 385 189 194 189 385 b 64 322 189 385 64 322 b 14 421 64 322 14 421 b 189 510 14 421 189 510 b 189 1042 189 510 189 1042 b 411 1042 189 1042 411 1042 b 411 621 411 1042 411 621 b 538 685 411 621 538 685 b 588 586 538 685 588 586 b 411 497 588 586 411 497 b 411 0 411 497 411 0 b 383 0 411 0 383 0 b 189 194 267 0 189 78 z "},"ł":{"ha":601,"x_min":0,"x_max":0,"o":"m 189 194 b 189 385 189 194 189 385 b 64 322 189 385 64 322 b 14 421 64 322 14 421 b 189 510 14 421 189 510 b 189 1042 189 510 189 1042 b 411 1042 189 1042 411 1042 b 411 621 411 1042 411 621 b 538 685 411 621 538 685 b 588 586 538 685 588 586 b 411 497 588 586 411 497 b 411 0 411 497 411 0 b 383 0 411 0 383 0 b 189 194 267 0 189 78 z "},"Œ":{"ha":1297,"x_min":0,"x_max":0,"o":"m 42 349 b 404 715 42 569 186 715 b 651 631 504 715 589 685 b 894 715 710 685 792 715 b 1256 290 1160 715 1256 558 b 779 290 1256 290 779 290 b 926 167 793 215 839 167 b 1103 251 997 167 1039 193 b 1240 129 1103 251 1240 129 b 921 -21 1140 17 1035 -21 b 651 67 803 -21 714 122 b 404 -21 589 11 504 -21 b 42 349 186 -21 42 128 z m 271 347 b 404 167 271 239 325 167 b 538 347 483 167 538 239 b 404 528 538 456 483 528 b 271 347 325 528 271 456 z m 782 429 b 1039 429 782 429 1039 429 b 910 528 1019 493 979 528 b 782 429 838 528 799 490 z "},"œ":{"ha":1297,"x_min":0,"x_max":0,"o":"m 42 349 b 404 715 42 569 186 715 b 651 631 504 715 589 685 b 894 715 710 685 792 715 b 1256 290 1160 715 1256 558 b 779 290 1256 290 779 290 b 926 167 793 215 839 167 b 1103 251 997 167 1039 193 b 1240 129 1103 251 1240 129 b 921 -21 1140 17 1035 -21 b 651 67 803 -21 714 122 b 404 -21 589 11 504 -21 b 42 349 186 -21 42 128 z m 271 347 b 404 167 271 239 325 167 b 538 347 483 167 538 239 b 404 528 538 456 483 528 b 271 347 325 528 271 456 z m 782 429 b 1039 429 782 429 1039 429 b 910 528 1019 493 979 528 b 782 429 838 528 799 490 z "},"Š":{"ha":732,"x_min":0,"x_max":0,"o":"m 306 824 b 97 1065 306 824 97 1065 b 260 1065 97 1065 260 1065 b 367 911 260 1065 367 911 b 474 1065 367 911 474 1065 b 636 1065 474 1065 636 1065 b 428 824 636 1065 428 824 b 306 824 428 824 306 824 z m 79 474 b 378 715 79 610 158 715 b 690 565 482 715 596 678 b 553 443 690 565 553 443 b 358 528 492 501 440 528 b 282 499 315 528 282 521 b 411 454 282 476 350 467 b 674 217 578 418 674 369 b 413 -21 674 82 572 -21 b 42 129 232 -21 135 17 b 179 251 42 129 179 251 b 379 167 239 193 301 167 b 471 199 426 167 471 179 b 340 235 471 219 426 221 b 79 474 154 264 79 354 z "},"š":{"ha":732,"x_min":0,"x_max":0,"o":"m 306 824 b 97 1065 306 824 97 1065 b 260 1065 97 1065 260 1065 b 367 911 260 1065 367 911 b 474 1065 367 911 474 1065 b 636 1065 474 1065 636 1065 b 428 824 636 1065 428 824 b 306 824 428 824 306 824 z m 79 474 b 378 715 79 610 158 715 b 690 565 482 715 596 678 b 553 443 690 565 553 443 b 358 528 492 501 440 528 b 282 499 315 528 282 521 b 411 454 282 476 350 467 b 674 217 578 418 674 369 b 413 -21 674 82 572 -21 b 42 129 232 -21 135 17 b 179 251 42 129 179 251 b 379 167 239 193 301 167 b 471 199 426 167 471 179 b 340 235 471 219 426 221 b 79 474 154 264 79 354 z "},"Ÿ":{"ha":813,"x_min":0,"x_max":0,"o":"m 203 901 b 286 985 203 951 236 985 b 369 901 336 985 369 951 b 286 818 369 851 336 818 b 203 901 236 818 203 851 z m 446 901 b 529 985 446 951 479 985 b 613 901 579 985 613 951 b 529 818 613 851 579 818 b 446 901 479 818 446 851 z m 535 694 b 757 694 535 694 757 694 b 757 57 757 694 757 57 b 388 -312 757 -164 660 -312 b 56 -162 268 -312 156 -275 b 193 -40 56 -162 193 -40 b 389 -125 258 -99 307 -125 b 533 14 496 -125 526 -69 b 406 14 533 14 406 14 b 69 333 140 14 69 176 b 69 694 69 333 69 694 b 292 694 69 694 292 694 b 292 335 292 694 292 335 b 439 194 292 251 349 194 b 535 194 439 194 535 194 b 535 694 535 194 535 694 z "},"Ž":{"ha":646,"x_min":0,"x_max":0,"o":"m 263 803 b 54 1044 263 803 54 1044 b 217 1044 54 1044 217 1044 b 324 890 217 1044 324 890 b 431 1044 324 890 431 1044 b 593 1044 431 1044 593 1044 b 385 803 593 1044 385 803 b 263 803 385 803 263 803 z m 42 514 b 42 694 42 514 42 694 b 604 694 42 694 604 694 b 604 514 604 694 604 514 b 311 181 604 514 311 181 b 604 181 311 181 604 181 b 604 0 604 181 604 0 b 42 0 604 0 42 0 b 42 181 42 0 42 181 b 335 514 42 181 335 514 b 42 514 335 514 42 514 z "},"ž":{"ha":646,"x_min":0,"x_max":0,"o":"m 263 803 b 54 1044 263 803 54 1044 b 217 1044 54 1044 217 1044 b 324 890 217 1044 324 890 b 431 1044 324 890 431 1044 b 593 1044 431 1044 593 1044 b 385 803 593 1044 385 803 b 263 803 385 803 263 803 z m 42 514 b 42 694 42 514 42 694 b 604 694 42 694 604 694 b 604 514 604 694 604 514 b 311 181 604 514 311 181 b 604 181 311 181 604 181 b 604 0 604 181 604 0 b 42 0 604 0 42 0 b 42 181 42 0 42 181 b 335 514 42 181 335 514 b 42 514 335 514 42 514 z "},"ˆ":{"ha":622,"x_min":0,"x_max":0,"o":"m 250 943 b 372 943 250 943 372 943 b 581 701 372 943 581 701 b 418 701 581 701 418 701 b 311 856 418 701 311 856 b 204 701 311 856 204 701 b 42 701 204 701 42 701 b 250 943 42 701 250 943 z "},"ˇ":{"ha":622,"x_min":0,"x_max":0,"o":"m 250 701 b 42 943 250 701 42 943 b 204 943 42 943 204 943 b 311 789 204 943 311 789 b 418 943 311 789 418 943 b 581 943 418 943 581 943 b 372 701 581 943 372 701 b 250 701 372 701 250 701 z "},"˚":{"ha":411,"x_min":0,"x_max":0,"o":"m 42 822 b 207 960 42 904 107 960 b 369 822 304 960 369 904 b 207 685 369 740 304 685 b 42 822 107 685 42 740 z m 158 822 b 207 775 158 793 178 775 b 251 822 236 775 251 793 b 207 869 251 851 236 869 b 158 822 178 869 158 851 z "},"˜":{"ha":599,"x_min":0,"x_max":0,"o":"m 42 694 b 208 901 42 804 86 901 b 404 783 347 901 343 783 b 446 872 447 783 447 840 b 557 872 446 872 557 872 b 404 672 557 769 526 672 b 208 790 258 672 264 790 b 153 694 156 790 153 736 b 42 694 153 694 42 694 z "},"̀":{"ha":183,"x_min":0,"x_max":0,"o":"m 96 701 b -100 858 96 701 -100 858 b -1 957 -100 858 -1 957 b 156 761 -1 957 156 761 b 96 701 156 761 96 701 z "},"́":{"ha":197,"x_min":0,"x_max":0,"o":"m -26 701 b -86 761 -26 701 -86 761 b 71 957 -86 761 71 957 b 169 858 71 957 169 858 b -26 701 169 858 -26 701 z "},"̂":{"ha":325,"x_min":0,"x_max":0,"o":"m -33 935 b 89 935 -33 935 89 935 b 297 693 89 935 297 693 b 135 693 297 693 135 693 b 28 847 135 693 28 847 b -79 693 28 847 -79 693 b -242 693 -79 693 -242 693 b -33 935 -242 693 -33 935 z "},"̃":{"ha":314,"x_min":0,"x_max":0,"o":"m -229 694 b -62 901 -229 804 -185 901 b 133 783 76 901 72 783 b 175 872 176 783 176 840 b 286 872 175 872 286 872 b 133 672 286 769 256 672 b -62 790 -12 672 -7 790 b -118 694 -115 790 -118 736 b -229 694 -118 694 -229 694 z "},"̈":{"ha":261,"x_min":0,"x_max":0,"o":"m -176 797 b -93 881 -176 847 -143 881 b -10 797 -43 881 -10 847 b -93 714 -10 747 -43 714 b -176 797 -143 714 -176 747 z m 67 797 b 150 881 67 847 100 881 b 233 797 200 881 233 847 b 150 714 233 747 200 714 b 67 797 100 714 67 747 z "},"̊":{"ha":219,"x_min":0,"x_max":0,"o":"m -136 822 b 29 960 -136 904 -71 960 b 192 822 126 960 192 904 b 29 685 192 740 126 685 b -136 822 -71 685 -136 740 z m -19 822 b 29 775 -19 793 0 775 b 74 822 58 775 74 793 b 29 869 74 851 58 869 b -19 822 0 869 -19 851 z "},"̌":{"ha":325,"x_min":0,"x_max":0,"o":"m -33 699 b -242 940 -33 699 -242 940 b -79 940 -242 940 -79 940 b 28 786 -79 940 28 786 b 135 940 28 786 135 940 b 297 940 135 940 297 940 b 89 699 297 940 89 699 b -33 699 89 699 -33 699 z "},"̧":{"ha":218,"x_min":0,"x_max":0,"o":"m 117 0 b 85 -75 117 0 85 -75 b 190 -192 151 -92 190 -129 b 21 -326 190 -308 75 -326 b -135 -296 -37 -326 -81 -315 b -96 -218 -135 -296 -96 -218 b 11 -243 -54 -235 -26 -243 b 79 -200 51 -243 79 -235 b 4 -156 79 -168 43 -156 b -71 -156 4 -156 -71 -156 b -6 0 -71 -156 -6 0 b 117 0 -6 0 117 0 z "},"–":{"ha":694,"x_min":0,"x_max":0,"o":"m 42 258 b 42 369 42 258 42 369 b 653 369 42 369 653 369 b 653 258 653 369 653 258 b 42 258 653 258 42 258 z "},"—":{"ha":1139,"x_min":0,"x_max":0,"o":"m 42 258 b 42 369 42 258 42 369 b 1097 369 42 369 1097 369 b 1097 258 1097 369 1097 258 b 42 258 1097 258 42 258 z "},"‘":{"ha":269,"x_min":0,"x_max":0,"o":"m 219 756 b 131 667 219 703 185 667 b 42 756 78 667 42 703 b 201 996 42 849 81 928 b 228 953 201 996 228 953 b 147 843 185 919 158 886 b 219 756 192 836 219 803 z "},"’":{"ha":269,"x_min":0,"x_max":0,"o":"m 50 907 b 139 996 50 960 85 996 b 228 907 192 996 228 960 b 68 667 228 814 189 735 b 42 710 68 667 42 710 b 122 819 85 743 111 776 b 50 907 78 826 50 860 z "},"‚":{"ha":269,"x_min":0,"x_max":0,"o":"m 50 72 b 139 161 50 125 85 161 b 228 72 192 161 228 125 b 68 -168 228 -21 189 -100 b 42 -125 68 -168 42 -125 b 122 -15 85 -92 111 -58 b 50 72 78 -8 50 25 z "},"“":{"ha":513,"x_min":0,"x_max":0,"o":"m 463 756 b 374 667 463 703 428 667 b 285 756 321 667 285 703 b 444 996 285 849 324 928 b 471 953 444 996 471 953 b 390 843 428 919 401 886 b 463 756 435 836 463 803 z m 219 756 b 131 667 219 703 185 667 b 42 756 78 667 42 703 b 201 996 42 849 81 928 b 228 953 201 996 228 953 b 147 843 185 919 158 886 b 219 756 192 836 219 803 z "},"”":{"ha":513,"x_min":0,"x_max":0,"o":"m 50 907 b 139 996 50 960 85 996 b 228 907 192 996 228 960 b 68 667 228 814 189 735 b 42 710 68 667 42 710 b 122 819 85 743 111 776 b 50 907 78 826 50 860 z m 293 907 b 382 996 293 960 328 996 b 471 907 435 996 471 960 b 311 667 471 814 432 735 b 285 710 311 667 285 710 b 365 819 328 743 354 776 b 293 907 321 826 293 860 z "},"„":{"ha":513,"x_min":0,"x_max":0,"o":"m 50 72 b 139 161 50 125 85 161 b 228 72 192 161 228 125 b 68 -168 228 -21 189 -100 b 42 -125 68 -168 42 -125 b 122 -15 85 -92 111 -58 b 50 72 78 -8 50 25 z m 293 72 b 382 161 293 125 328 161 b 471 72 435 161 471 125 b 311 -168 471 -21 432 -100 b 285 -125 311 -168 285 -125 b 365 -15 328 -92 354 -58 b 293 72 321 -8 293 25 z "},"€":{"ha":832,"x_min":0,"x_max":0,"o":"m 804 -17 b 686 -17 804 -17 686 -17 b 204 342 422 -17 253 115 b 14 342 204 342 14 342 b 14 453 14 342 14 453 b 190 453 14 453 190 453 b 189 492 189 465 189 479 b 189 515 189 500 189 507 b 14 515 189 515 14 515 b 14 626 14 515 14 626 b 201 626 14 626 201 626 b 686 997 246 863 417 997 b 804 997 686 997 804 997 b 804 817 804 997 804 817 b 671 817 804 817 671 817 b 433 626 540 817 463 749 b 639 626 433 626 639 626 b 639 515 639 626 639 515 b 418 515 639 515 418 515 b 418 490 418 507 418 499 b 419 453 418 478 418 465 b 639 453 419 453 639 453 b 639 342 639 453 639 342 b 436 342 639 342 436 342 b 671 164 468 228 544 164 b 804 164 671 164 804 164 b 804 -17 804 164 804 -17 z "},"−":{"ha":528,"x_min":0,"x_max":0,"o":"m 42 258 b 42 369 42 258 42 369 b 486 369 42 369 486 369 b 486 258 486 369 486 258 b 42 258 486 258 42 258 z "},"ﬀ":{"ha":989,"x_min":0,"x_max":0,"o":"m 486 1031 b 486 850 486 1031 486 850 b 404 850 486 850 404 850 b 278 694 314 850 278 761 b 517 694 278 694 517 694 b 856 1031 517 919 633 1031 b 947 1031 856 1031 947 1031 b 947 850 947 1031 947 850 b 865 850 947 850 865 850 b 739 694 775 850 739 761 b 939 694 739 694 939 694 b 939 514 939 694 939 514 b 739 514 939 514 739 514 b 739 0 739 514 739 0 b 517 0 739 0 517 0 b 517 514 517 0 517 514 b 278 514 517 514 278 514 b 278 0 278 514 278 0 b 56 0 278 0 56 0 b 56 694 56 0 56 694 b 394 1031 56 919 172 1031 b 486 1031 394 1031 486 1031 z "},"ﬁ":{"ha":847,"x_min":0,"x_max":0,"o":"m 486 1031 b 486 850 486 1031 486 850 b 404 850 486 850 404 850 b 278 694 314 850 278 761 b 778 694 278 694 778 694 b 778 0 778 694 778 0 b 750 0 778 0 750 0 b 556 194 633 0 556 78 b 556 514 556 194 556 514 b 278 514 556 514 278 514 b 278 0 278 514 278 0 b 56 0 278 0 56 0 b 56 694 56 0 56 694 b 394 1031 56 919 172 1031 b 486 1031 394 1031 486 1031 z m 556 778 b 556 1000 556 778 556 1000 b 778 1000 556 1000 778 1000 b 778 778 778 1000 778 778 b 556 778 778 778 556 778 z "},"ﬂ":{"ha":847,"x_min":0,"x_max":0,"o":"m 778 1031 b 778 0 778 1031 778 0 b 750 0 778 0 750 0 b 556 194 633 0 556 78 b 556 850 556 194 556 850 b 404 850 556 850 404 850 b 278 694 314 850 278 761 b 478 694 278 694 478 694 b 478 514 478 694 478 514 b 278 514 478 514 278 514 b 278 0 278 514 278 0 b 56 0 278 0 56 0 b 56 694 56 0 56 694 b 394 1031 56 919 172 1031 b 778 1031 394 1031 778 1031 z "},"ﬃ":{"ha":1347,"x_min":0,"x_max":0,"o":"m 486 1031 b 486 850 486 1031 486 850 b 404 850 486 850 404 850 b 278 694 314 850 278 761 b 556 694 278 694 556 694 b 894 1031 556 919 672 1031 b 986 1031 894 1031 986 1031 b 986 850 986 1031 986 850 b 904 850 986 850 904 850 b 778 694 814 850 778 761 b 1278 694 778 694 1278 694 b 1278 0 1278 694 1278 0 b 1250 0 1278 0 1250 0 b 1056 194 1133 0 1056 78 b 1056 514 1056 194 1056 514 b 778 514 1056 514 778 514 b 778 0 778 514 778 0 b 556 0 778 0 556 0 b 556 514 556 0 556 514 b 278 514 556 514 278 514 b 278 0 278 514 278 0 b 56 0 278 0 56 0 b 56 694 56 0 56 694 b 394 1031 56 919 172 1031 b 486 1031 394 1031 486 1031 z m 1056 778 b 1056 1000 1056 778 1056 1000 b 1278 1000 1056 1000 1278 1000 b 1278 778 1278 1000 1278 778 b 1056 778 1278 778 1056 778 z "},"ﬄ":{"ha":1347,"x_min":0,"x_max":0,"o":"m 486 1031 b 486 850 486 1031 486 850 b 404 850 486 850 404 850 b 278 694 314 850 278 761 b 556 694 278 694 556 694 b 894 1031 556 919 672 1031 b 1278 1031 894 1031 1278 1031 b 1278 0 1278 1031 1278 0 b 1250 0 1278 0 1250 0 b 1056 194 1133 0 1056 78 b 1056 850 1056 194 1056 850 b 904 850 1056 850 904 850 b 778 694 814 850 778 761 b 978 694 778 694 978 694 b 978 514 978 694 978 514 b 778 514 978 514 778 514 b 778 0 778 514 778 0 b 556 0 778 0 556 0 b 556 514 556 0 556 514 b 278 514 556 514 278 514 b 278 0 278 514 278 0 b 56 0 278 0 56 0 b 56 694 56 0 56 694 b 394 1031 56 919 172 1031 b 486 1031 394 1031 486 1031 z "},"ﬆ":{"ha":1204,"x_min":0,"x_max":0,"o":"m 79 474 b 378 715 79 610 158 715 b 435 711 397 715 415 714 b 421 801 426 740 421 769 b 682 1038 421 950 531 1038 b 954 817 799 1038 954 996 b 954 694 954 817 954 694 b 1154 694 954 694 1154 694 b 1154 514 1154 694 1154 514 b 954 514 1154 514 954 514 b 954 336 954 514 954 336 b 1081 181 954 269 990 181 b 1163 181 1081 181 1163 181 b 1163 0 1163 181 1163 0 b 1071 0 1163 0 1071 0 b 732 336 849 0 732 111 b 732 764 732 336 732 764 b 661 857 732 828 700 857 b 606 772 625 857 606 828 b 690 565 606 683 653 622 b 596 481 690 565 596 481 b 596 481 596 481 596 481 b 553 443 596 481 553 443 b 358 528 492 501 440 528 b 282 499 315 528 282 521 b 411 454 282 476 350 467 b 674 217 578 418 674 369 b 413 -21 674 82 572 -21 b 42 129 232 -21 135 17 b 179 251 42 129 179 251 b 379 167 239 193 301 167 b 471 199 426 167 471 179 b 340 235 471 219 426 221 b 79 474 154 264 79 354 z "}}}
